<?xml version="1.0" encoding="UTF-8" standalone="no"?>
<!-- Created with Inkscape (http://www.inkscape.org/) -->

<svg
   version="1.1"
   id="svg2"
   width="666.66669"
   height="666.66669"
   viewBox="0 0 666.66669 666.66669"
   sodipodi:docname="8598084.eps"
   xmlns:inkscape="http://www.inkscape.org/namespaces/inkscape"
   xmlns:sodipodi="http://sodipodi.sourceforge.net/DTD/sodipodi-0.dtd"
   xmlns="http://www.w3.org/2000/svg"
   xmlns:svg="http://www.w3.org/2000/svg">
  <defs
     id="defs6">
    <clipPath
       clipPathUnits="userSpaceOnUse"
       id="clipPath22">
      <path
         d="M 1256.65,3714.11 681.098,2701.61 C 467.949,2326.64 520.488,1857.06 811.238,1538.47 L 1596.33,678.199 c 290.75,-318.578 753.58,-413.73 1146.42,-235.648 l 1060.78,480.828 c 392.84,178.071 626.34,588.851 578.38,1017.491 l -129.5,1157.44 c -47.96,428.64 -366.47,777.65 -788.96,864.5 l -1140.8,234.5 c -422.49,86.85 -852.85,-108.23 -1066,-483.2 z"
         id="path20" />
    </clipPath>
    <clipPath
       clipPathUnits="userSpaceOnUse"
       id="clipPath102">
      <path
         d="m 2513.17,3988.53 c -16.62,26.04 -23.28,50.32 -23.28,50.32 0,0 161.01,133.88 253.46,-54.39 0,0 -25.05,-31.54 -68.65,-48.41 0,0 -79.36,42.28 -161.53,52.48 z"
         id="path100" />
    </clipPath>
  </defs>
  <sodipodi:namedview
     id="namedview4"
     pagecolor="#ffffff"
     bordercolor="#000000"
     borderopacity="0.25"
     inkscape:showpageshadow="2"
     inkscape:pageopacity="0.0"
     inkscape:pagecheckerboard="0"
     inkscape:deskcolor="#d1d1d1" />
  <g
     id="g8"
     inkscape:groupmode="layer"
     inkscape:label="ink_ext_XXXXXX"
     transform="matrix(1.3333333,0,0,-1.3333333,0,666.66667)">
    <g
       id="g10"
       transform="scale(0.1)">
      <path
         d="M 5000,0 H 0 V 5000 H 5000 V 0"
         style="fill:#e8e7e8;fill-opacity:1;fill-rule:nonzero;stroke:none"
         id="path12" />
      <path
         d="M 1256.65,3714.11 681.098,2701.61 C 467.949,2326.64 520.488,1857.06 811.238,1538.47 L 1596.33,678.199 c 290.75,-318.578 753.58,-413.73 1146.42,-235.648 l 1060.78,480.828 c 392.84,178.071 626.34,588.851 578.38,1017.491 l -129.5,1157.44 c -47.96,428.64 -366.47,777.65 -788.96,864.5 l -1140.8,234.5 c -422.49,86.85 -852.85,-108.23 -1066,-483.2"
         style="fill:#f79ad1;fill-opacity:1;fill-rule:nonzero;stroke:none"
         id="path14" />
      <g
         id="g16">
        <g
           id="g18"
           clip-path="url(#clipPath22)">
          <path
             d="m 2024.65,4413.6 c 0,0 -312.08,-674.07 35.29,-562.93 453.29,145.03 320.19,-160.55 650.17,-319.96 164.08,-79.25 453,438.41 707.51,254.52 254.5,-183.89 407.36,49.25 391.37,241.52 -15.98,192.27 -894.54,854.93 -1784.34,386.85"
             style="fill:#fcd3a6;fill-opacity:1;fill-rule:nonzero;stroke:none"
             id="path24" />
          <path
             d="m 3910.39,601.551 c 0,0 -164.22,241.148 -94.49,579.049 69.73,337.9 277.66,476.27 163.79,726.72 -113.88,250.46 705.85,63.08 439.15,-556.07 -266.7,-619.141 -508.45,-749.699 -508.45,-749.699"
             style="fill:#fcd3a6;fill-opacity:1;fill-rule:nonzero;stroke:none"
             id="path26" />
          <path
             d="m 589.766,1923.34 c 0,0 201.328,-164.62 398.863,-196.06 197.541,-31.46 304.221,-442.84 124.951,-474.52 C 934.316,1221.07 691.395,1107.03 616.035,809.301 540.68,511.57 333.668,1548.63 589.766,1923.34"
             style="fill:#6b75c2;fill-opacity:1;fill-rule:nonzero;stroke:none"
             id="path28" />
        </g>
      </g>
      <path
         d="m 1268.67,1957.3 -63.55,-19.15 33.43,-57.33 -15.19,-64.61 66.37,0.29 48.36,-45.46 32.93,57.62 63.55,19.14 -33.43,57.34 15.19,64.61 -66.37,-0.29 -48.35,45.46 -32.94,-57.62"
         style="fill:#e8e7e8;fill-opacity:1;fill-rule:nonzero;stroke:none"
         id="path30" />
      <path
         d="m 2161.11,4051.79 -40.43,7.69 1.94,-41.1 -26.88,-31.16 36.57,-18.88 13.54,-38.85 34.63,22.23 40.42,-7.7 -1.93,41.11 26.87,31.16 -36.56,18.87 -13.54,38.86 -34.63,-22.23"
         style="fill:#e8e7e8;fill-opacity:1;fill-rule:nonzero;stroke:none"
         id="path32" />
      <path
         d="m 1037.51,1457.68 c 0,-24.95 20.21,-45.16 45.15,-45.16 24.94,0 45.15,20.21 45.15,45.16 0,24.93 -20.21,45.14 -45.15,45.14 -24.94,0 -45.15,-20.21 -45.15,-45.14"
         style="fill:#fcd3a6;fill-opacity:1;fill-rule:nonzero;stroke:none"
         id="path34" />
      <path
         d="m 3452.88,3287.4 c 0,-24.94 20.22,-45.15 45.16,-45.15 24.93,0 45.14,20.21 45.14,45.15 0,24.93 -20.21,45.15 -45.14,45.15 -24.94,0 -45.16,-20.22 -45.16,-45.15"
         style="fill:#e8e7e8;fill-opacity:1;fill-rule:nonzero;stroke:none"
         id="path36" />
      <path
         d="m 3356.25,3727.17 182.98,-157.45 100.58,116.9 -182.97,157.44 -100.59,-116.89"
         style="fill:#6b75c2;fill-opacity:1;fill-rule:nonzero;stroke:none"
         id="path38" />
      <path
         d="m 1972.26,3673.86 -141.51,-245.11 92.76,-53.56 141.51,245.11 -92.76,53.56"
         style="fill:#fcd3a6;fill-opacity:1;fill-rule:nonzero;stroke:none"
         id="path40" />
      <path
         d="m 3924.07,1555.94 -177.06,-129.52 49.03,-67.02 177.05,129.54 -49.02,67"
         style="fill:#9599d4;fill-opacity:1;fill-rule:nonzero;stroke:none"
         id="path42" />
      <path
         d="m 3213.12,662.129 c 0,0 330.48,-1006.508 380.01,-1339.879 0,0 -565.93,-128.219 -867.24,-153.859 0,0 -199.99,759.2809 -283.33,1025.328 0,0 -12.8,-76.52 -169.25,-1089.438 0,0 -359.52,77.321 -827.58,279.071 0,0 72.69,1150.199 231.51,1641.098 158.81,490.89 1180.37,415.96 1535.88,-362.321"
         style="fill:#fcd3a6;fill-opacity:1;fill-rule:nonzero;stroke:none"
         id="path44" />
      <path
         d="m 2474.92,1059.14 c 0,0 -113.01,-465.269 -183.71,-652.64 0,0 -336.13,12.449 -519.8,50.41 l 390.96,699.57 312.55,-97.34"
         style="fill:#fabd83;fill-opacity:1;fill-rule:nonzero;stroke:none"
         id="path46" />
      <path
         d="m 2944.38,604.98 294.85,-1356.539 353.9,73.809 c 0,0 -207.54,913.242 -380.01,1339.879 L 2944.38,604.98"
         style="fill:#fabd83;fill-opacity:1;fill-rule:nonzero;stroke:none"
         id="path48" />
      <path
         d="M 2500,221.621 2838.54,-819.09 2725.89,-831.609 2442.56,193.719 2500,221.621"
         style="fill:#fabd83;fill-opacity:1;fill-rule:nonzero;stroke:none"
         id="path50" />
      <path
         d="m 2430.4,116.98 -268.03,-985.082 110.94,-27.617 z"
         style="fill:#fabd83;fill-opacity:1;fill-rule:nonzero;stroke:none"
         id="path52" />
      <path
         d="M 2442.56,193.719 2665.29,301.91"
         style="fill:none;stroke:#5a3189;stroke-width:7.5;stroke-linecap:round;stroke-linejoin:round;stroke-miterlimit:10;stroke-dasharray:none;stroke-opacity:1"
         id="path54" />
      <path
         d="m 1736.42,-732.309 c 0,0 246.92,1442.079 397.51,2020.959"
         style="fill:none;stroke:#5a3189;stroke-width:7.5;stroke-linecap:round;stroke-linejoin:round;stroke-miterlimit:10;stroke-dasharray:none;stroke-opacity:1"
         id="path56" />
      <path
         d="m 3005.94,973.332 c 0,0 212.01,-740.75 466.57,-1677.391"
         style="fill:none;stroke:#5a3189;stroke-width:7.5;stroke-linecap:round;stroke-linejoin:round;stroke-miterlimit:10;stroke-dasharray:none;stroke-opacity:1"
         id="path58" />
      <path
         d="M 2425.23,83.6719 2377.8,-220.539"
         style="fill:none;stroke:#5a3189;stroke-width:7.5;stroke-linecap:round;stroke-linejoin:round;stroke-miterlimit:10;stroke-dasharray:none;stroke-opacity:1"
         id="path60" />
      <path
         d="m 2460.33,135.512 84.61,107.937 -102.38,-49.73 z"
         style="fill:#5a3189;fill-opacity:1;fill-rule:nonzero;stroke:none"
         id="path62" />
      <path
         d="m 2415.8,3195.81 c 0,0 190.75,-195.52 523.16,-74.17 0,0 473.12,-159.62 458.65,-400.81 -14.47,-241.18 -184.19,-1835.861 -184.19,-1835.861 0,0 -691.19,392.151 -1415.91,536.481 0,0 188.84,1155.12 618.29,1774.36"
         style="fill:#e8e7e8;fill-opacity:1;fill-rule:nonzero;stroke:none"
         id="path64" />
      <path
         d="m 2494.55,3129.98 c 0,0 -59.39,-282.5 157.03,-548.89 l -132.16,-1343.84 -327.22,51.4 c 0,0 107.42,1946.72 170.39,1953.6 0,0 91.95,-88.37 131.96,-112.27"
         style="fill:#c7d4d9;fill-opacity:1;fill-rule:nonzero;stroke:none"
         id="path66" />
      <path
         d="m 3200.51,790.559 12.91,94.41 c 0,0 -709.3,470.401 -1415.91,536.481 0,0 -42.38,-74.26 -61.09,-139.75 0,0 1113.27,-313.399 1464.09,-491.141"
         style="fill:#5a3189;fill-opacity:1;fill-rule:nonzero;stroke:none"
         id="path68" />
      <path
         d="m 2484.18,4284.88 c -11.86,-52.75 -24.88,-120.13 -24.88,-120.13 0,0 -77.96,57.74 -128.88,-94.17 -54.11,-161.47 56.9,-181.08 56.9,-181.08 0,0 -25.28,-87.66 -3.16,-150.96 27.52,-78.75 108,-125.87 108,-125.87 l -50.49,-275.64 -25.87,-141.22 c 0,0 94,-106.46 238.31,-131.52 145.41,-17.51 284.85,57.35 284.85,57.35 l 17.13,161.39 27.35,257.46 c 0,0 90.63,21.98 139.65,89.49 39.39,54.26 40.39,145.48 40.39,145.48 0,0 111.96,-13.15 106.58,157.06 -5.07,160.14 -96.35,127.27 -96.35,127.27 0,0 6.91,68.28 10.72,122.21 0,0 10.97,245.37 -314.76,293.23 -325.72,47.85 -385.49,-190.35 -385.49,-190.35"
         style="fill:#f46ba7;fill-opacity:1;fill-rule:nonzero;stroke:none"
         id="path70" />
      <path
         d="M 2869.67,4475.23 C 3195.4,4427.37 3184.43,4182 3184.43,4182 c -3.81,-53.93 -10.72,-122.21 -10.72,-122.21 0,0 91.28,32.87 96.35,-127.27 5.38,-170.21 -106.58,-157.06 -106.58,-157.06 0,0 -1,-91.22 -40.39,-145.48 -49.02,-67.51 -139.65,-89.49 -139.65,-89.49 l -27.35,-257.46 -17.13,-161.39 c 0,0 -22.43,-12.04 -58.66,-25.33 l 33.08,428.21 c 0,0 184.17,98.48 192.14,279.83 0,0 23.91,261.05 23.91,330.8 0,69.75 -29.29,269.64 -259.76,340.08"
         style="fill:#f14090;fill-opacity:1;fill-rule:nonzero;stroke:none"
         id="path72" />
      <path
         d="m 2523.94,3594.43 c 0,0 198.38,-122.11 423.51,-62.22 0,0 -60.11,-109.02 -228.71,-84.25 -168.6,24.77 -194.8,146.47 -194.8,146.47"
         style="fill:#5a3189;fill-opacity:1;fill-rule:nonzero;stroke:none"
         id="path74" />
      <path
         d="m 3171.84,3857.67 c 0,0 31.48,15.14 25.85,41.05 -5.65,25.9 -28.35,21.58 -25.3,48.18"
         style="fill:none;stroke:#5a3189;stroke-width:7.5;stroke-linecap:round;stroke-linejoin:round;stroke-miterlimit:10;stroke-dasharray:none;stroke-opacity:1"
         id="path76" />
      <path
         d="m 3189.42,4011.68 c 0,0 51.03,15.04 47.84,-76.51"
         style="fill:none;stroke:#5a3189;stroke-width:7.5;stroke-linecap:round;stroke-linejoin:round;stroke-miterlimit:10;stroke-dasharray:none;stroke-opacity:1"
         id="path78" />
      <path
         d="m 2397.47,3964.23 c 0,0 -25.8,23.55 -12.95,46.75 12.85,23.18 33.35,12.51 38.07,38.88"
         style="fill:none;stroke:#5a3189;stroke-width:7.5;stroke-linecap:round;stroke-linejoin:round;stroke-miterlimit:10;stroke-dasharray:none;stroke-opacity:1"
         id="path80" />
      <path
         d="m 2430.41,4123.19 c 0,0 -44.54,29.08 -67.82,-59.51"
         style="fill:none;stroke:#5a3189;stroke-width:7.5;stroke-linecap:round;stroke-linejoin:round;stroke-miterlimit:10;stroke-dasharray:none;stroke-opacity:1"
         id="path82" />
      <path
         d="m 2714.72,3897.97 c 0,0 -49.57,-26.07 -12.05,-61.97"
         style="fill:none;stroke:#5a3189;stroke-width:7.5;stroke-linecap:round;stroke-linejoin:round;stroke-miterlimit:10;stroke-dasharray:none;stroke-opacity:1"
         id="path84" />
      <path
         d="m 2845.24,3815.05 c 46.26,23.6 6.28,62.82 6.28,62.82 0,0 -26.85,23.77 -12.99,84.44"
         style="fill:none;stroke:#5a3189;stroke-width:7.5;stroke-linecap:round;stroke-linejoin:round;stroke-miterlimit:10;stroke-dasharray:none;stroke-opacity:1"
         id="path86" />
      <path
         d="m 2732.97,3841.24 c 0,0 12.52,12.1 26.72,-4.84"
         style="fill:none;stroke:#5a3189;stroke-width:7.5;stroke-linecap:round;stroke-linejoin:round;stroke-miterlimit:10;stroke-dasharray:none;stroke-opacity:1"
         id="path88" />
      <path
         d="m 2792.03,3832.56 c 0,0 12.52,12.1 26.72,-4.84"
         style="fill:none;stroke:#5a3189;stroke-width:7.5;stroke-linecap:round;stroke-linejoin:round;stroke-miterlimit:10;stroke-dasharray:none;stroke-opacity:1"
         id="path90" />
      <path
         d="m 2861.41,3932.62 c 10,23.68 28.6,43.09 52.28,56.02 23.66,12.95 53.08,17.22 80.02,12.17 13.5,-2.53 25.54,-6.49 37.81,-11.83 11.99,-5.7 23.64,-12.43 33.66,-21.47 20.05,-17.54 35.35,-41.72 36.26,-68.52 0.06,-2.11 -1.59,-3.88 -3.7,-3.96 -1.22,-0.03 -2.31,0.49 -3.04,1.35 l -0.48,0.56 c -14.98,17.82 -32.33,30.78 -50.43,40.46 -8.99,5.02 -18.69,8.67 -28.29,12.35 -9.69,3.21 -20.23,6.29 -29.85,8.45 -19.36,4.01 -38.84,3.6 -58.73,-1.69 -19.84,-5.17 -40.02,-15.21 -59.45,-28.31 l -0.38,-0.26 c -1.76,-1.18 -4.14,-0.71 -5.33,1.04 -0.74,1.11 -0.82,2.49 -0.35,3.64"
         style="fill:#5a3189;fill-opacity:1;fill-rule:nonzero;stroke:none"
         id="path92" />
      <path
         d="m 2513.23,3988.44 c -16.66,26.08 -23.34,50.41 -23.34,50.41 0,0 160.48,133.96 253.46,-54.39 0,0 -25.16,-31.68 -68.94,-48.52 0,0 -75.04,41.16 -161.18,52.5"
         style="fill:#ffffff;fill-opacity:1;fill-rule:nonzero;stroke:none"
         id="path94" />
      <g
         id="g96">
        <g
           id="g98"
           clip-path="url(#clipPath102)">
          <path
             d="m 2533.51,4013.96 c -6.52,-45.15 24.8,-87.03 69.95,-93.54 45.14,-6.51 87.02,24.8 93.53,69.95 6.52,45.15 -24.8,87.02 -69.94,93.54 -45.15,6.51 -87.03,-24.81 -93.54,-69.95"
             style="fill:#5a3189;fill-opacity:1;fill-rule:nonzero;stroke:none"
             id="path104" />
        </g>
      </g>
      <path
         d="m 2739.67,3983.73 c -13.13,24.5 -28.42,46.96 -46.41,63.95 -17.98,17.09 -38.55,27.91 -61.37,31.63 -23.68,4.03 -47.69,2.73 -70.95,-4.43 -23.29,-7.21 -46.29,-20.52 -67.85,-38 l -0.37,-0.3 c -1.64,-1.33 -4.05,-1.08 -5.38,0.56 -0.87,1.07 -1.06,2.47 -0.64,3.68 10.03,28.58 31.7,52.5 59.65,67.65 28.03,15.33 62.08,19.62 93.34,13.55 16.13,-2.89 31.93,-9.22 45.71,-18.22 13.83,-8.98 25.4,-20.68 34.57,-33.42 17.95,-25.91 27.27,-55.4 27.06,-85.19 -0.02,-2.11 -1.74,-3.81 -3.85,-3.8 -1.44,0.01 -2.69,0.83 -3.34,2.01 l -0.17,0.33"
         style="fill:#5a3189;fill-opacity:1;fill-rule:nonzero;stroke:none"
         id="path106" />
      <path
         d="m 2625.5,3809.88 c 0,0 143.48,-29.07 284.93,-43.02 0,0 -57.66,-120.61 -161.55,-104.92 -110.29,16.65 -123.38,147.94 -123.38,147.94"
         style="fill:#5a3189;fill-opacity:1;fill-rule:nonzero;stroke:none"
         id="path108" />
      <path
         d="m 2654.64,3726.21 c 0,0 79.37,5.79 100.98,-24.51 0,0 27.87,19.96 95.35,-9.21 0,0 -32.22,-38.99 -102.09,-30.55 -68.24,8.24 -94.24,64.27 -94.24,64.27"
         style="fill:#f14090;fill-opacity:1;fill-rule:nonzero;stroke:none"
         id="path110" />
      <path
         d="m 2625.5,3809.88 c 0,0 130.02,-103.83 284.93,-43.02 0,0 -142.87,24.58 -284.93,43.02"
         style="fill:#e8e7e8;fill-opacity:1;fill-rule:nonzero;stroke:none"
         id="path112" />
      <path
         d="m 3064.95,4113.22 c 26.73,-10.15 49.41,20.98 32.25,43.85 -21.12,28.14 -53.43,56.52 -101.49,67.88 -108.75,25.74 -64.25,-64.47 6.03,-88.76 22.64,-7.83 44.28,-15.78 63.21,-22.97"
         style="fill:#5a3189;fill-opacity:1;fill-rule:nonzero;stroke:none"
         id="path114" />
      <path
         d="m 2590.38,4207.18 c -28.35,3.75 -33.54,41.9 -7.59,53.9 31.94,14.76 73.85,24.4 121.55,11.62 107.95,-28.93 25.98,-87.24 -47.42,-75.29 -23.64,3.86 -46.46,7.12 -66.54,9.77"
         style="fill:#5a3189;fill-opacity:1;fill-rule:nonzero;stroke:none"
         id="path116" />
      <path
         d="m 2963.38,4052.77 c 0,0 43.3,12.69 73.49,-12.39"
         style="fill:none;stroke:#5a3189;stroke-width:10;stroke-linecap:round;stroke-linejoin:round;stroke-miterlimit:10;stroke-dasharray:none;stroke-opacity:1"
         id="path118" />
      <path
         d="m 2416.88,4175.06 c 0,0 43.95,2.79 34.32,-37.46 -14.23,-59.46 12.25,-30.93 32.67,-26.35 20.42,4.57 28.59,12.73 46.29,103.95 17.69,91.2 112.86,213.14 171.51,189.68 58.66,-23.45 60.58,-95.19 21.68,-100.7 0,0 162.52,-28.62 134.93,103.64 0,0 26.22,-130.92 178.59,-105.85 0,0 4.51,-100.33 98.31,-140.97 0,0 -3.13,-67.23 -9.38,-134.45 0,0 -3.18,-19.51 27.03,-19.51 30.22,0 13.74,18.96 32.27,55.12 0,0 48.45,77.16 73.41,108.23 0,0 67.55,-5.58 92.51,75.93 24.95,81.5 -14.34,123.13 -14.34,123.13 0,0 47.7,69.42 -33.92,136.55 -58.32,47.98 -130.92,18.14 -130.92,18.14 0,0 8.48,96.49 -34.76,108.13 0,0 -14.97,-61.55 -51.57,-64.88 0,0 -47.63,177.22 -214.36,161.36 -138.18,-13.16 -169.33,-115.46 -169.33,-115.46 0,0 -40.8,13.42 -13.19,75.25 0,0 -53.89,-37.98 -53.89,-87.88 0,0 -24.95,24.96 -56.56,24.96 0,0 14.97,-16.64 8.32,-49.91 0,0 -179.2,61.01 -204.56,-137.81 0,0 -19.07,-130.13 51.19,-145.29 l -16.25,-117.55"
         style="fill:#5a3189;fill-opacity:1;fill-rule:nonzero;stroke:none"
         id="path120" />
      <path
         d="m 3272.24,3884.3 c 4.47,-2.95 8.61,-7.3 11.75,-12.74 8.16,-14.14 6.58,-30.34 -3.55,-36.18 -10.12,-5.85 -24.94,0.87 -33.11,15.01 -8.16,14.14 -6.57,30.34 3.55,36.18"
         style="fill:none;stroke:#5a3189;stroke-width:7.5;stroke-linecap:round;stroke-linejoin:round;stroke-miterlimit:10;stroke-dasharray:none;stroke-opacity:1"
         id="path122" />
      <path
         d="m 3221.14,3830.13 c 0,-9.43 -7.63,-17.07 -17.07,-17.07 -9.42,0 -17.06,7.64 -17.06,17.07 0,9.43 7.64,17.07 17.06,17.07 9.44,0 17.07,-7.64 17.07,-17.07"
         style="fill:#5a3189;fill-opacity:1;fill-rule:nonzero;stroke:none"
         id="path124" />
      <path
         d="m 2335.52,3923.39 c 0,0 36.56,8.21 66.24,22.62 l -14.44,-56.51 c 0,0 -28.97,2.32 -51.8,33.89"
         style="fill:#f14090;fill-opacity:1;fill-rule:nonzero;stroke:none"
         id="path126" />
      <path
         d="m 3784.83,2936.49 41.01,-319.08 c 0,0 276.37,12.57 319.08,135.68 42.71,123.1 98.27,102.24 -140.54,431.75 l -219.55,-248.35"
         style="fill:#f46ba7;fill-opacity:1;fill-rule:nonzero;stroke:none"
         id="path128" />
      <path
         d="m 3825.84,2617.41 c 0,0 276.37,12.57 319.08,135.68 40.8,117.62 93.35,103.81 -110.35,389.74 0,0 36.93,-336.41 -208.73,-525.42"
         style="fill:#f14090;fill-opacity:1;fill-rule:nonzero;stroke:none"
         id="path130" />
      <path
         d="m 4004.38,3184.84 c 0,0 -42.85,-185.63 -122.4,-254.99 -79.56,-69.35 -187.66,-34.67 -161.15,153 0,0 -135.79,-19.41 -89.85,85.75 0,0 -74.52,34.71 -25.52,121.49 0,0 -41.86,35.74 23.48,92.91 0,0 -37.78,66.36 55.13,90.86 0,0 79.63,10.21 142.93,18.38 0,0 28.59,31.65 33.69,67.38 5.11,35.74 22.46,140.89 100.06,121.49 77.59,-19.39 31.64,-62.27 11.23,-144.97 0,0 -2.04,-21.44 0,-47.99 2.04,-26.54 -10.21,-84.81 -10.21,-84.81 0,0 27.96,-90.29 42.61,-218.5"
         style="fill:#f46ba7;fill-opacity:1;fill-rule:nonzero;stroke:none"
         id="path132" />
      <path
         d="m 3828.22,3489.67 c 0,0 112.94,-0.06 134.77,-88.89"
         style="fill:none;stroke:#5a3189;stroke-width:7.5;stroke-linecap:round;stroke-linejoin:round;stroke-miterlimit:10;stroke-dasharray:none;stroke-opacity:1"
         id="path134" />
      <path
         d="m 3630.16,3380.43 c 0,0 40.29,26.86 190.69,8.62"
         style="fill:none;stroke:#5a3189;stroke-width:7.5;stroke-linecap:round;stroke-linejoin:round;stroke-miterlimit:10;stroke-dasharray:none;stroke-opacity:1"
         id="path136" />
      <path
         d="m 3820.85,3304.59 c 0,0 -180.56,21.42 -214.18,-17.07"
         style="fill:none;stroke:#5a3189;stroke-width:7.5;stroke-linecap:round;stroke-linejoin:round;stroke-miterlimit:10;stroke-dasharray:none;stroke-opacity:1"
         id="path138" />
      <path
         d="m 3632.2,3166.03 c 0,0 30.86,39.67 148.64,39.67"
         style="fill:none;stroke:#5a3189;stroke-width:7.5;stroke-linecap:round;stroke-linejoin:round;stroke-miterlimit:10;stroke-dasharray:none;stroke-opacity:1"
         id="path140" />
      <path
         d="m 1395.79,3271.57 -147.95,-285.66 c 0,0 -255.301,106.57 -253.199,236.86 2.093,130.29 -57.258,129.75 280.079,357.37 l 121.07,-308.57"
         style="fill:#f46ba7;fill-opacity:1;fill-rule:nonzero;stroke:none"
         id="path142" />
      <path
         d="m 1274.72,3580.14 c 0,0 -23.42,-189.06 27.53,-281.49 50.95,-92.43 164.4,-96.93 203.84,88.45 0,0 120.91,-64.8 113.81,49.74 0,0 81.92,7.05 65.64,105.38 0,0 51.57,19.21 9.8,95.32 0,0 58.24,49.38 -20.62,104.26 0,0 -71.31,36.9 -127.97,66.28 0,0 -16,39.53 -8.54,74.85 7.46,35.32 27.22,140.05 -52.32,148.44 -79.54,8.39 -51.09,-47.65 -60.26,-132.33 0,0 -5.44,-20.85 -16.46,-45.08 -11.03,-24.23 -19.5,-83.17 -19.5,-83.17 0,0 -57.22,-75.22 -114.95,-190.65"
         style="fill:#f46ba7;fill-opacity:1;fill-rule:nonzero;stroke:none"
         id="path144" />
      <path
         d="m 1544.73,3806.08 c 0,0 -106.11,38.69 -157.08,-37.29"
         style="fill:none;stroke:#5a3189;stroke-width:7.5;stroke-linecap:round;stroke-linejoin:round;stroke-miterlimit:10;stroke-dasharray:none;stroke-opacity:1"
         id="path146" />
      <path
         d="m 1693.32,3635.55 c 0,0 -28.64,39.04 -176.17,73.48"
         style="fill:none;stroke:#5a3189;stroke-width:7.5;stroke-linecap:round;stroke-linejoin:round;stroke-miterlimit:10;stroke-dasharray:none;stroke-opacity:1"
         id="path148" />
      <path
         d="m 1488.19,3629.71 c 0,0 176.95,-41.8 195.33,-89.49"
         style="fill:none;stroke:#5a3189;stroke-width:7.5;stroke-linecap:round;stroke-linejoin:round;stroke-miterlimit:10;stroke-dasharray:none;stroke-opacity:1"
         id="path150" />
      <path
         d="m 1617.88,3434.85 c 0,0 -15.38,47.85 -126.03,88.24"
         style="fill:none;stroke:#5a3189;stroke-width:7.5;stroke-linecap:round;stroke-linejoin:round;stroke-miterlimit:10;stroke-dasharray:none;stroke-opacity:1"
         id="path152" />
      <path
         d="m 1216.28,3206.14 145.46,51 c 0,0 80.89,17.17 144.35,129.96 0,0 -24.98,-162.25 -128.59,-150.83 l -87.52,-168.99 -73.7,138.86"
         style="fill:#f14090;fill-opacity:1;fill-rule:nonzero;stroke:none"
         id="path154" />
      <path
         d="m 2552.41,2586.26 c 0,-519.73 -459.76,-2118.889 -459.76,-2118.889 -529.72,-49.973 -975.72,80.07 -975.72,80.07 C 1291.89,1205.3 1599.82,2089.07 1599.82,2089.07 694.219,1924.55 402.891,1973.15 356.148,2405.5 c -46.738,432.36 730.032,1038.04 730.032,1038.04 19.27,-173.38 202.59,-229.77 266.4,-244.22 9.94,-2.25 14.29,-13.87 8.33,-22.14 -57.75,-80.1 -101.42,-182.34 -101.42,-182.34 0,0 426.52,265.29 614.16,265.29 93.83,0 220,-14.56 322.72,-29.12 14.65,-2.07 58.84,265.46 268.4,232.12 l -48.97,-267.32 c -36.04,-89.45 -75.77,-309.15 136.61,-609.55"
         style="fill:#6b75c2;fill-opacity:1;fill-rule:nonzero;stroke:none"
         id="path156" />
      <path
         d="m 1599.82,2089.07 c -420.68,-76.42 -708.812,-106.86 -901.445,-74.2 0,0 631.235,251.68 1018.665,581.95 0,0 -43.44,-291.56 -117.22,-507.75"
         style="fill:#4859b1;fill-opacity:1;fill-rule:nonzero;stroke:none"
         id="path158" />
      <path
         d="m 2215.65,2773.51 c 0,0 30.68,-250.08 189.65,-324.42 l 10.5,59.5 c 0,0 -114.33,77.42 -200.15,264.92"
         style="fill:#4859b1;fill-opacity:1;fill-rule:nonzero;stroke:none"
         id="path160" />
      <path
         d="m 2196.37,3231.01 c 0,0 -151.72,-412.35 219.43,-722.42 0,0 -170.85,-1020.19 -506.86,-1934.149"
         style="fill:none;stroke:#5a3189;stroke-width:7.5;stroke-linecap:round;stroke-linejoin:round;stroke-miterlimit:10;stroke-dasharray:none;stroke-opacity:1"
         id="path162" />
      <path
         d="m 1526.05,1872.88 118.19,341.53"
         style="fill:none;stroke:#5a3189;stroke-width:7.5;stroke-linecap:round;stroke-linejoin:round;stroke-miterlimit:10;stroke-dasharray:none;stroke-opacity:1"
         id="path164" />
      <path
         d="m 1599.82,2089.07 -187.98,-32.45 228.87,147.6 z"
         style="fill:#5a3189;fill-opacity:1;fill-rule:nonzero;stroke:none"
         id="path166" />
      <path
         d="m 1259.49,2994.84 -128.04,-279.62 369.69,414.76 z"
         style="fill:#4859b1;fill-opacity:1;fill-rule:nonzero;stroke:none"
         id="path168" />
      <path
         d="m 1304.77,3086.72 c 0,0 -132,-239.76 -218.59,-493.77"
         style="fill:none;stroke:#5a3189;stroke-width:7.5;stroke-linecap:round;stroke-linejoin:round;stroke-miterlimit:10;stroke-dasharray:none;stroke-opacity:1"
         id="path170" />
      <path
         d="m 945.281,3324.17 c 0,0 26.301,-203.16 302.559,-338.26"
         style="fill:none;stroke:#5a3189;stroke-width:7.5;stroke-linecap:round;stroke-linejoin:round;stroke-miterlimit:10;stroke-dasharray:none;stroke-opacity:1"
         id="path172" />
      <path
         d="m 4145.53,2959.86 c 8.03,11.5 25.31,11.03 32.54,-1 618.55,-1030.53 276.65,-1305.4 -57.69,-1328.21 -337.13,-22.97 -573.59,225.74 -573.59,225.74 C 3500.81,1235.75 3477.82,638.121 3477.82,638.121 3041.08,469.551 2635,455.949 2635,455.949 l 16.58,2125.141 c 318.18,218.74 295.87,489.07 287.38,540.55 l 27.48,258.79 c 153.26,-43.04 163.35,-238.4 163.35,-238.4 0,0 202.46,-29.07 340.38,-159.32 137.91,-130.26 336.06,-386.63 336.06,-386.63 0,0 -11.23,64.1 -11.96,121.65 -0.14,10.66 8.49,19.31 19.16,19.44 50.04,0.58 191.63,21.73 332.1,222.69"
         style="fill:#6b75c2;fill-opacity:1;fill-rule:nonzero;stroke:none"
         id="path174" />
      <path
         d="m 3546.79,1856.39 c 0,0 236.46,-248.71 573.59,-225.74 105.35,7.19 211.46,39.41 288.03,112.41 0,0 280.06,212.27 -35.79,851.3 0,0 188.16,-719.02 -509.64,-699.31 -204.16,9.79 -300.86,72.59 -300.86,72.59 l -15.33,-111.25"
         style="fill:#4859b1;fill-opacity:1;fill-rule:nonzero;stroke:none"
         id="path176" />
      <path
         d="m 3542.12,1792.36 37.28,304.12"
         style="fill:none;stroke:#5a3189;stroke-width:7.5;stroke-linecap:round;stroke-linejoin:round;stroke-miterlimit:10;stroke-dasharray:none;stroke-opacity:1"
         id="path178" />
      <path
         d="m 2944.38,1924.55 c 0,-17 -13.78,-30.79 -30.79,-30.79 -17,0 -30.78,13.79 -30.78,30.79 0,16.99 13.78,30.78 30.78,30.78 17.01,0 30.79,-13.79 30.79,-30.78 z"
         style="fill:none;stroke:#5a3189;stroke-width:7.5;stroke-linecap:round;stroke-linejoin:round;stroke-miterlimit:10;stroke-dasharray:none;stroke-opacity:1"
         id="path180" />
      <path
         d="m 2975.16,1669.08 c 0,-17 -13.78,-30.78 -30.78,-30.78 -17.01,0 -30.79,13.78 -30.79,30.78 0,17 13.78,30.78 30.79,30.78 17,0 30.78,-13.78 30.78,-30.78 z"
         style="fill:none;stroke:#5a3189;stroke-width:7.5;stroke-linecap:round;stroke-linejoin:round;stroke-miterlimit:10;stroke-dasharray:none;stroke-opacity:1"
         id="path182" />
      <path
         d="m 3005.94,1421.45 c 0,-17.01 -13.78,-30.8 -30.78,-30.8 -17.01,0 -30.78,13.79 -30.78,30.8 0,16.99 13.77,30.78 30.78,30.78 17,0 30.78,-13.79 30.78,-30.78 z"
         style="fill:none;stroke:#5a3189;stroke-width:7.5;stroke-linecap:round;stroke-linejoin:round;stroke-miterlimit:10;stroke-dasharray:none;stroke-opacity:1"
         id="path184" />
      <path
         d="m 3570.87,2026.84 87.83,-261.39 -113.48,82.86 z"
         style="fill:#5a3189;fill-opacity:1;fill-rule:nonzero;stroke:none"
         id="path186" />
      <path
         d="m 3806.23,2596.08 -226.83,272.88 260.13,-549.19 z"
         style="fill:#4859b1;fill-opacity:1;fill-rule:nonzero;stroke:none"
         id="path188" />
      <path
         d="m 3796.57,2673.2 c 0,0 39.08,-331.95 60.39,-487.16"
         style="fill:none;stroke:#5a3189;stroke-width:7.5;stroke-linecap:round;stroke-linejoin:round;stroke-miterlimit:10;stroke-dasharray:none;stroke-opacity:1"
         id="path190" />
      <path
         d="m 3806.23,2596.08 c 0,0 273.01,-100.51 448.3,230.5"
         style="fill:none;stroke:#5a3189;stroke-width:7.5;stroke-linecap:round;stroke-linejoin:round;stroke-miterlimit:10;stroke-dasharray:none;stroke-opacity:1"
         id="path192" />
      <path
         d="m 3156.86,3136.92 -27.07,5.11 c 0,0 -13.03,-494.21 -370.83,-660.11 l 22.76,-526.59 28.58,494.46 c 0,0 405.91,138.94 346.56,687.13"
         style="fill:#4859b1;fill-opacity:1;fill-rule:nonzero;stroke:none"
         id="path194" />
      <path
         d="m 3129.79,3142.03 c 0,0 -26.02,-521.34 -370.83,-660.11 0,0 52.67,-1242.18 85.39,-1876.94"
         style="fill:none;stroke:#5a3189;stroke-width:7.5;stroke-linecap:round;stroke-linejoin:round;stroke-miterlimit:10;stroke-dasharray:none;stroke-opacity:1"
         id="path196" />
      <path
         d="m 3984.33,3737.17 c 0,0 18.38,76.54 95.64,111.56"
         style="fill:none;stroke:#5a3189;stroke-width:7.5;stroke-linecap:round;stroke-linejoin:round;stroke-miterlimit:10;stroke-dasharray:none;stroke-opacity:1"
         id="path198" />
      <path
         d="m 4084.88,3670.48 c 0,0 25.75,20.85 76.03,22.08"
         style="fill:none;stroke:#5a3189;stroke-width:7.5;stroke-linecap:round;stroke-linejoin:round;stroke-miterlimit:10;stroke-dasharray:none;stroke-opacity:1"
         id="path200" />
      <path
         d="m 3872.73,3744.06 c 0,0 -23.3,53.96 -14.71,89.52"
         style="fill:none;stroke:#5a3189;stroke-width:7.5;stroke-linecap:round;stroke-linejoin:round;stroke-miterlimit:10;stroke-dasharray:none;stroke-opacity:1"
         id="path202" />
      <path
         d="m 3962.99,3833.58 c 0,-7.18 -5.82,-13 -13,-13 -7.18,0 -13,5.82 -13,13 0,7.18 5.82,12.99 13,12.99 7.18,0 13,-5.81 13,-12.99 z"
         style="fill:none;stroke:#5a3189;stroke-width:7.5;stroke-linecap:round;stroke-linejoin:round;stroke-miterlimit:10;stroke-dasharray:none;stroke-opacity:1"
         id="path204" />
      <path
         d="m 3922.29,3746.98 c 0,-5.42 -4.4,-9.81 -9.82,-9.81 -5.42,0 -9.81,4.39 -9.81,9.81 0,5.43 4.39,9.82 9.81,9.82 5.42,0 9.82,-4.39 9.82,-9.82"
         style="fill:#5a3189;fill-opacity:1;fill-rule:nonzero;stroke:none"
         id="path206" />
      <path
         d="m 4094.7,3802.76 c 0,-5.42 -4.4,-9.81 -9.82,-9.81 -5.43,0 -9.82,4.39 -9.82,9.81 0,5.43 4.39,9.82 9.82,9.82 5.42,0 9.82,-4.39 9.82,-9.82"
         style="fill:#5a3189;fill-opacity:1;fill-rule:nonzero;stroke:none"
         id="path208" />
      <path
         d="m 4087.57,3733.99 c 0,-7.18 -5.82,-13 -13,-13 -7.17,0 -12.99,5.82 -12.99,13 0,7.18 5.82,12.99 12.99,12.99 7.18,0 13,-5.81 13,-12.99 z"
         style="fill:none;stroke:#5a3189;stroke-width:7.5;stroke-linecap:round;stroke-linejoin:round;stroke-miterlimit:10;stroke-dasharray:none;stroke-opacity:1"
         id="path210" />
      <path
         d="m 3889.01,3650.56 c 0,0 28.98,52.09 81.33,27.83"
         style="fill:none;stroke:#5a3189;stroke-width:7.5;stroke-linecap:round;stroke-linejoin:round;stroke-miterlimit:10;stroke-dasharray:none;stroke-opacity:1"
         id="path212" />
      <path
         d="m 1425.08,4081.98 c 0,0 -26.81,74.01 -107.48,100.2"
         style="fill:none;stroke:#5a3189;stroke-width:7.5;stroke-linecap:round;stroke-linejoin:round;stroke-miterlimit:10;stroke-dasharray:none;stroke-opacity:1"
         id="path214" />
      <path
         d="m 1332.59,4004.5 c 0,0 -27.91,17.84 -78.01,13.46"
         style="fill:none;stroke:#5a3189;stroke-width:7.5;stroke-linecap:round;stroke-linejoin:round;stroke-miterlimit:10;stroke-dasharray:none;stroke-opacity:1"
         id="path216" />
      <path
         d="m 1535.21,4101.27 c 0,0 17.14,56.21 4.65,90.6"
         style="fill:none;stroke:#5a3189;stroke-width:7.5;stroke-linecap:round;stroke-linejoin:round;stroke-miterlimit:10;stroke-dasharray:none;stroke-opacity:1"
         id="path218" />
      <path
         d="m 1435.55,4180.16 c 0.79,-7.13 7.23,-12.27 14.36,-11.46 7.13,0.8 12.26,7.23 11.47,14.36 -0.8,7.14 -7.23,12.27 -14.37,11.47 -7.13,-0.8 -12.26,-7.23 -11.46,-14.37 z"
         style="fill:none;stroke:#5a3189;stroke-width:7.5;stroke-linecap:round;stroke-linejoin:round;stroke-miterlimit:10;stroke-dasharray:none;stroke-opacity:1"
         id="path220" />
      <path
         d="m 1485.64,4098.65 c 0.61,-5.39 5.46,-9.27 10.85,-8.67 5.39,0.61 9.26,5.47 8.66,10.86 -0.6,5.38 -5.46,9.26 -10.85,8.65 -5.39,-0.6 -9.27,-5.45 -8.66,-10.84"
         style="fill:#5a3189;fill-opacity:1;fill-rule:nonzero;stroke:none"
         id="path222" />
      <path
         d="m 1308.09,4134.86 c 0.61,-5.39 5.46,-9.26 10.85,-8.66 5.39,0.61 9.26,5.46 8.66,10.85 -0.6,5.39 -5.46,9.26 -10.85,8.66 -5.38,-0.6 -9.26,-5.46 -8.66,-10.85"
         style="fill:#5a3189;fill-opacity:1;fill-rule:nonzero;stroke:none"
         id="path224" />
      <path
         d="m 1322.84,4067.31 c 0.8,-7.13 7.23,-12.27 14.36,-11.47 7.13,0.8 12.27,7.23 11.47,14.37 -0.8,7.13 -7.23,12.26 -14.37,11.46 -7.13,-0.8 -12.26,-7.23 -11.46,-14.36 z"
         style="fill:none;stroke:#5a3189;stroke-width:7.5;stroke-linecap:round;stroke-linejoin:round;stroke-miterlimit:10;stroke-dasharray:none;stroke-opacity:1"
         id="path226" />
      <path
         d="m 1529.45,4006.53 c 0,0 -34.6,48.54 -83.92,18.6"
         style="fill:none;stroke:#5a3189;stroke-width:7.5;stroke-linecap:round;stroke-linejoin:round;stroke-miterlimit:10;stroke-dasharray:none;stroke-opacity:1"
         id="path228" />
    </g>
  </g>
</svg>
