<?xml version="1.0" encoding="utf-8"?>
<!-- Generator: Adobe Illustrator 27.5.0, SVG Export Plug-In . SVG Version: 6.00 Build 0)  -->
<svg version="1.1" xmlns="http://www.w3.org/2000/svg" xmlns:xlink="http://www.w3.org/1999/xlink" x="0px" y="0px"
	 viewBox="0 0 500 500" style="enable-background:new 0 0 500 500;" xml:space="preserve">
<g id="Background_Complete">
	<g>
		<g>
			<g>
				<g>
					<path style="fill:#F5F5F5;" d="M180.329,183.404c4.823,33.198-18.24,64.029-51.513,68.866
						c-33.275,4.835-64.16-18.156-68.984-51.355c-4.825-33.197,18.238-64.029,51.512-68.864
						C144.618,127.216,175.504,150.208,180.329,183.404z"/>
				</g>
			</g>
			<g>
				<g>
					<path style="fill:#EBEBEB;" d="M165.993,185.488c3.676,25.297-13.899,48.793-39.257,52.479
						c-25.355,3.685-48.893-13.836-52.569-39.133c-3.675-25.299,13.9-48.796,39.256-52.48
						C138.78,142.669,162.316,160.19,165.993,185.488z"/>
				</g>
			</g>
			<g>
				<g>
					<g>
						<path style="fill:#E0E0E0;" d="M165.773,184.051c-0.277,0.051-0.766-1.936-2.016-5.345c-1.264-3.386-3.389-8.239-7.341-13.303
							c-1.973-2.52-4.388-5.081-7.291-7.46c-2.92-2.35-6.298-4.55-10.138-6.266c-1.915-0.865-3.93-1.638-6.045-2.235
							c-2.11-0.608-4.303-1.111-6.568-1.396c-2.26-0.292-4.582-0.466-6.939-0.405c-2.356,0.056-4.739,0.283-7.127,0.69
							c-2.382,0.44-4.701,1.047-6.931,1.804c-2.235,0.755-4.355,1.717-6.378,2.769c-2.029,1.049-3.915,2.275-5.687,3.572
							c-1.78,1.288-3.406,2.71-4.906,4.18c-3.013,2.934-5.429,6.164-7.359,9.375c-1.906,3.231-3.292,6.468-4.277,9.514
							c-1.965,6.113-2.288,11.4-2.308,15.014c0.001,3.63,0.227,5.664-0.052,5.71c-0.204,0.041-0.896-1.917-1.33-5.637
							c-0.408-3.697-0.479-9.241,1.278-15.792c0.882-3.263,2.21-6.755,4.127-10.263c1.941-3.487,4.432-7.01,7.6-10.226
							c1.576-1.611,3.296-3.168,5.191-4.584c1.886-1.425,3.903-2.771,6.078-3.924c2.171-1.158,4.454-2.211,6.861-3.039
							c2.404-0.831,4.905-1.491,7.473-1.964c2.574-0.441,5.148-0.68,7.69-0.727c2.544-0.051,5.05,0.153,7.487,0.493
							c2.439,0.333,4.797,0.904,7.057,1.593c2.266,0.677,4.418,1.547,6.452,2.516c4.08,1.929,7.633,4.378,10.657,6.984
							c3.005,2.633,5.458,5.455,7.409,8.215c3.906,5.546,5.749,10.776,6.641,14.387
							C165.955,181.941,165.979,184.017,165.773,184.051z"/>
					</g>
				</g>
			</g>
		</g>
		<g>
			<g>
				<g>
					<g>
						<path style="fill:#E0E0E0;" d="M129.254,218.791l1.279,7.981l-7.125,1.139l-1.243-7.765
							c-7.122,0.701-14.244-0.422-18.653-2.859l2.525-9.32c3.986,2.067,9.422,3.168,14.634,2.846l-1.907-11.9
							c-8.216-0.655-17.473-1.877-19.104-12.067c-1.209-7.553,3.239-14.914,14.29-17.998l-1.266-7.91l7.126-1.141l1.243,7.768
							c5.412-0.428,10.84,0.163,15.158,2.029l-2.158,9.335c-3.965-1.484-7.864-2.102-11.496-1.961l1.94,12.114
							c8.204,0.585,17.32,1.831,18.928,11.876C144.612,208.367,140.223,215.646,129.254,218.791z M117.088,188.439l-1.622-10.116
							c-3.638,1.459-4.803,3.766-4.428,6.117C111.439,186.932,113.793,187.945,117.088,188.439z M132.093,203.649
							c-0.4-2.495-2.682-3.516-5.918-4.097l1.574,9.833C131.187,208.032,132.457,205.929,132.093,203.649z"/>
					</g>
				</g>
			</g>
		</g>
	</g>
	<g>
		<g>
			<g>
				<g>
					<path style="fill:#F5F5F5;" d="M401.394,128.666c12.637,20.848,5.942,48.016-14.952,60.683
						c-20.895,12.667-48.079,6.036-60.716-14.812c-12.638-20.846-5.943-48.014,14.952-60.681
						C361.573,101.188,388.757,107.82,401.394,128.666z"/>
				</g>
			</g>
			<g>
				<g>
					<path style="fill:#EBEBEB;" d="M392.392,134.124c9.63,15.885,4.529,36.59-11.395,46.243
						c-15.922,9.652-36.639,4.599-46.268-11.287c-9.63-15.887-4.529-36.592,11.394-46.244
						C362.046,113.184,382.761,118.237,392.392,134.124z"/>
				</g>
			</g>
			<g>
				<g>
					<g>
						<path style="fill:#E0E0E0;" d="M391.837,133.224c-0.171,0.112-1.061-1.079-2.864-3.005c-1.806-1.907-4.603-4.553-8.683-6.821
							c-2.034-1.127-4.376-2.157-6.993-2.925c-2.62-0.745-5.504-1.26-8.56-1.32c-1.526-0.036-3.094,0.018-4.679,0.218
							c-1.584,0.191-3.194,0.476-4.79,0.927c-1.595,0.445-3.198,0.987-4.758,1.696c-1.56,0.705-3.091,1.533-4.573,2.482
							c-1.47,0.97-2.849,2.033-4.126,3.171c-1.281,1.139-2.427,2.383-3.483,3.66c-1.061,1.277-1.975,2.632-2.793,4.002
							c-0.826,1.367-1.511,2.779-2.098,4.188c-1.185,2.817-1.886,5.663-2.267,8.359c-0.359,2.702-0.37,5.261-0.165,7.579
							c0.418,4.647,1.7,8.276,2.71,10.701c1.03,2.429,1.757,3.726,1.584,3.836c-0.125,0.085-1.143-1.029-2.488-3.395
							c-1.321-2.358-2.94-6.048-3.621-10.93c-0.335-2.433-0.436-5.147-0.147-8.037c0.311-2.884,0.979-5.947,2.187-8.997
							c0.598-1.525,1.308-3.054,2.174-4.539c0.858-1.488,1.827-2.96,2.955-4.349c1.124-1.391,2.354-2.742,3.73-3.978
							c1.373-1.238,2.86-2.388,4.444-3.432c1.598-1.024,3.252-1.914,4.94-2.666c1.688-0.755,3.423-1.329,5.149-1.792
							c1.727-0.468,3.466-0.755,5.173-0.934c1.708-0.189,3.395-0.217,5.031-0.145c3.277,0.134,6.349,0.766,9.111,1.653
							c2.757,0.91,5.199,2.104,7.286,3.397c4.185,2.604,6.901,5.581,8.522,7.745C391.361,131.761,391.965,133.143,391.837,133.224z"
							/>
					</g>
				</g>
			</g>
		</g>
		<g>
			<g>
				<g>
					<g>
						<path style="fill:#E0E0E0;" d="M377.246,166.821l3.118,4.978l-4.445,2.781l-3.033-4.844
							c-4.567,2.488-9.651,3.755-13.292,3.373l-0.952-6.952c3.253,0.254,7.203-0.55,10.599-2.243l-4.648-7.422
							c-5.684,1.89-12.224,3.696-16.204-2.66c-2.949-4.711-2.06-10.898,4.461-16.093l-3.089-4.934l4.445-2.783l3.034,4.845
							c3.5-1.82,7.3-2.963,10.718-2.938l1.202,6.858c-3.074,0.131-5.858,0.822-8.248,1.946l4.732,7.556
							c5.655-1.934,12.109-3.684,16.031,2.582C384.569,155.493,383.695,161.608,377.246,166.821z M360.503,149.959l-3.953-6.31
							c-2.021,2.007-2.147,3.881-1.229,5.348C356.296,150.552,358.158,150.563,360.503,149.959z M374.855,155.884
							c-0.975-1.556-2.791-1.593-5.121-1.064l3.841,6.134C375.49,159.074,375.745,157.307,374.855,155.884z"/>
					</g>
				</g>
			</g>
		</g>
	</g>
	<g>
		<g>
			<g>
				<g>
					<path style="fill:#F5F5F5;" d="M341.818,87.714c-10.618,6.695-24.666,3.495-31.377-7.147
						c-6.711-10.643-3.544-24.698,7.075-31.393c10.618-6.695,24.666-3.495,31.376,7.147
						C355.603,66.963,352.436,81.019,341.818,87.714z"/>
				</g>
			</g>
			<g>
				<g>
					<path style="fill:#EBEBEB;" d="M338.926,83.129c-8.091,5.102-18.796,2.663-23.911-5.447c-5.114-8.11-2.7-18.821,5.391-23.923
						c8.092-5.102,18.798-2.664,23.911,5.446C349.432,67.315,347.018,78.026,338.926,83.129z"/>
				</g>
			</g>
			<g>
				<g>
					<g>
						<path style="fill:#E0E0E0;" d="M339.385,82.835c-0.059-0.087,0.546-0.556,1.521-1.502c0.966-0.947,2.302-2.411,3.433-4.532
							c0.562-1.058,1.07-2.273,1.443-3.627c0.36-1.356,0.599-2.845,0.602-4.419c0.005-0.786-0.037-1.593-0.155-2.407
							c-0.113-0.814-0.274-1.64-0.521-2.458c-0.244-0.817-0.537-1.638-0.916-2.434c-0.377-0.797-0.817-1.578-1.319-2.332
							c-0.513-0.748-1.073-1.448-1.67-2.096c-0.598-0.649-1.249-1.228-1.916-1.76c-0.667-0.535-1.373-0.993-2.086-1.402
							c-0.711-0.413-1.444-0.753-2.175-1.042c-1.461-0.584-2.933-0.919-4.324-1.091c-1.395-0.16-2.712-0.143-3.903-0.017
							c-2.389,0.257-4.246,0.95-5.484,1.493c-1.241,0.552-1.902,0.938-1.96,0.85c-0.045-0.064,0.519-0.598,1.725-1.312
							c1.202-0.701,3.087-1.568,5.594-1.964c1.25-0.194,2.646-0.271,4.137-0.148c1.487,0.134,3.07,0.45,4.652,1.044
							c0.79,0.294,1.584,0.646,2.356,1.078c0.774,0.428,1.541,0.913,2.266,1.482c0.726,0.566,1.433,1.187,2.082,1.884
							c0.65,0.696,1.255,1.451,1.807,2.257c0.542,0.813,1.015,1.657,1.418,2.519c0.404,0.862,0.715,1.75,0.969,2.635
							c0.257,0.885,0.42,1.778,0.528,2.655c0.113,0.878,0.142,1.746,0.12,2.589c-0.04,1.688-0.337,3.275-0.768,4.706
							c-0.444,1.427-1.036,2.695-1.683,3.782c-1.303,2.178-2.811,3.604-3.91,4.457C340.134,82.576,339.427,82.9,339.385,82.835z"/>
					</g>
				</g>
			</g>
		</g>
		<g>
			<g>
				<g>
					<g>
						<path style="fill:#E0E0E0;" d="M321.955,75.628l-2.535,1.65l-1.472-2.263l2.466-1.605c-1.322-2.329-2.021-4.935-1.857-6.813
							l3.571-0.553c-0.101,1.677,0.349,3.703,1.251,5.436l3.779-2.461c-1.025-2.909-2.014-6.26,1.223-8.366
							c2.399-1.561,5.592-1.159,8.326,2.151l2.512-1.635l1.473,2.263l-2.467,1.606c0.969,1.785,1.592,3.731,1.61,5.491l-3.52,0.681
							c-0.095-1.581-0.476-3.008-1.076-4.229l-3.847,2.505c1.047,2.894,2.006,6.201-1.184,8.277
							C327.854,79.295,324.698,78.901,321.955,75.628z M330.485,66.855l3.213-2.092c-1.052-1.022-2.018-1.07-2.765-0.584
							C330.141,64.694,330.152,65.653,330.485,66.855z M327.564,74.297c0.792-0.516,0.795-1.452,0.501-2.646l-3.123,2.033
							C325.928,74.653,326.84,74.768,327.564,74.297z"/>
					</g>
				</g>
			</g>
		</g>
	</g>
</g>
<g id="Background_Simple" style="display:none;">
	<path style="display:inline;fill:#EBEBEB;" d="M318.431,408.539c99.522-37.755,133.257-106.913,149.718-181.129
		c8.114-36.583,5.843-76.243-11.178-109.626C439.95,84.4,407.073,58.33,369.835,54.15c-37.238-4.181-77.229,16.192-91.732,50.744
		c-9.727,23.174-9.159,52.231-27.974,68.894c-12.546,11.111-30.725,13.399-47.407,11.805c-16.682-1.594-32.932-6.516-49.642-7.796
		c-36.669-2.807-82.707,15.043-100.717,47.107c-12.734,22.67-24.817,56.921-13.066,100.711c9.531,35.52,42.098,80.572,110.225,92.7
		C149.522,418.315,246.028,436.006,318.431,408.539z"/>
</g>
<g id="Desk">
	<g>
		<g>
			<path style="fill:#263238;" d="M472.196,450.443c0,0.144-99.488,0.26-222.185,0.26c-122.74,0-222.207-0.117-222.207-0.26
				s99.467-0.26,222.207-0.26C372.707,450.183,472.196,450.3,472.196,450.443z"/>
		</g>
	</g>
</g>
<g id="Plants">
	<g>
		<g>
			<g>
				<g>
					<g>
						<path style="fill:#E8505B;" d="M87.257,419.739c1.129-4.374-1.739-8.765-4.954-11.939c-3.215-3.174-7.059-6.017-8.731-10.213
							c-2.71-6.798,0.933-15.6-3.691-21.272c-2.72-3.337-7.598-4.453-10.013-8.018c-1.266-1.87-1.676-4.168-2.174-6.37
							c-2.538-11.235-8.162-21.757-16.091-30.111c-0.552,10.005,1.655,20.148,6.313,29.02c1.873,3.566,4.172,7.043,4.793,11.022
							c1.008,6.463-2.6,13.121-1.012,19.466c1.815,7.257,9.967,12.114,10.354,19.585c0.327,6.316-5.178,11.859-4.768,18.17
							c0.175,2.687,1.422,5.182,2.81,7.489c4.884,8.118,12.057,13.71,22.931,13.528l13.318,0.466L87.257,419.739z"/>
					</g>
				</g>
			</g>
		</g>
		<g style="opacity:0.3;">
			<g>
				<g>
					<g>
						<g>
							<path d="M87.257,419.739c1.129-4.374-1.739-8.765-4.954-11.939c-3.215-3.174-7.059-6.017-8.731-10.213
								c-2.71-6.798,0.933-15.6-3.691-21.272c-2.72-3.337-7.598-4.453-10.013-8.018c-1.266-1.87-1.676-4.168-2.174-6.37
								c-2.538-11.235-8.162-21.757-16.091-30.111c-0.552,10.005,1.655,20.148,6.313,29.02c1.873,3.566,4.172,7.043,4.793,11.022
								c1.008,6.463-2.6,13.121-1.012,19.466c1.815,7.257,9.967,12.114,10.354,19.585c0.327,6.316-5.178,11.859-4.768,18.17
								c0.175,2.687,1.422,5.182,2.81,7.489c4.884,8.118,12.057,13.71,22.931,13.528l13.318,0.466L87.257,419.739z"/>
						</g>
					</g>
				</g>
			</g>
		</g>
		<g>
			<g>
				<g>
					<g>
						<g>
							<g>
								<g>
									<path style="fill:#263238;" d="M99.039,450.474c0,0,1.27,0.295,3.667-0.079c1.194-0.174,2.663-0.491,4.328-1.089
										c1.655-0.605,3.54-1.468,5.345-2.928c0.867-0.758,1.733-1.691,2.199-2.93c0.459-1.233,0.542-2.588,0.627-3.979
										c0.071-1.392,0.073-2.842,0.311-4.308c0.225-1.466,0.801-2.908,1.627-4.283c1.571-2.759,4.178-5.37,5.02-9.115
										c0.911-3.684,0.258-7.67-0.362-11.674c-0.618-3.994-1.217-8.35,0.311-12.512c1.429-4.165,4.349-7.925,5.81-12.621
										c1.454-4.743,0.776-9.844,1.083-14.874c0.141-2.527,0.629-5.054,1.736-7.395c1.077-2.357,2.572-4.581,3.739-7.063
										c2.364-5.017,2.781-10.704,3.428-16.277c0.315-2.808,0.634-5.645,0.955-8.51c0.318-2.879,0.573-5.746,1.48-8.517
										c0.821-2.791,2.009-5.491,3.186-8.242c0.576-1.384,1.186-2.768,1.546-4.305c0.261-1.57,0.336-3.039,0.43-4.581
										c0.149-3.054,0.024-6.148-0.355-9.219c-0.362-3.074-0.916-6.121-1.247-9.201c-0.02-0.182-0.041-0.364-0.06-0.531
										l-0.069-0.613l-0.545,0.273c-2.852,1.428-5.293,3.556-7.169,6.05c-1.907,2.478-3.296,5.275-4.405,8.118
										c-2.225,5.722-3.026,11.719-4.147,17.441c-1.095,5.722-2.538,11.351-5.472,16.107c-1.459,2.372-3.225,4.537-4.77,6.851
										c-1.541,2.297-2.898,4.821-3.305,7.59c-0.788,5.634,2.316,10.582,1.67,15.571c-0.23,2.479-1.217,4.796-2.429,6.912
										c-1.209,2.128-2.631,4.101-3.979,6.085c-1.347,1.983-2.631,3.995-3.575,6.145c-0.961,2.143-1.49,4.435-1.636,6.677
										c-0.325,4.491,0.312,8.752-0.016,12.774c-0.271,4.029-1.685,7.681-3.287,10.946c-1.611,3.277-3.403,6.24-4.904,9.113
										c-0.755,1.435-1.451,2.837-2.019,4.244c-0.601,1.404-0.896,2.843-1.169,4.21c-0.437,2.761-0.395,5.334-0.098,7.602
										c0.579,4.562,2.281,7.847,3.81,9.694c0.351,0.493,0.758,0.841,1.078,1.167c0.312,0.336,0.621,0.564,0.874,0.743
										C98.774,450.306,99.039,450.474,99.039,450.474c0.059-0.068-1.096-0.679-2.579-2.55c-1.466-1.857-3.094-5.117-3.615-9.629
										c-0.268-2.242-0.284-4.781,0.17-7.492c0.281-1.34,0.582-2.75,1.178-4.111c0.566-1.374,1.271-2.768,2.031-4.188
										c1.513-2.848,3.324-5.799,4.97-9.096c1.633-3.281,3.103-7.006,3.402-11.139c0.35-4.108-0.269-8.384,0.071-12.769
										c0.153-2.194,0.668-4.379,1.605-6.452c0.923-2.081,2.187-4.054,3.534-6.022c1.348-1.97,2.786-3.951,4.029-6.123
										c1.244-2.158,2.289-4.57,2.541-7.195c0.642-5.314-2.439-10.295-1.638-15.532c0.385-2.591,1.673-5.005,3.193-7.261
										c1.521-2.271,3.296-4.438,4.799-6.87c3.026-4.893,4.493-10.63,5.599-16.375c1.132-5.758,1.934-11.691,4.119-17.295
										c1.088-2.786,2.446-5.512,4.29-7.904c1.814-2.411,4.15-4.439,6.868-5.801l-0.614-0.34c0.019,0.169,0.04,0.353,0.06,0.537
										c0.335,3.116,0.891,6.17,1.249,9.208c0.374,3.037,0.498,6.07,0.353,9.078c-0.087,1.485-0.177,3.043-0.409,4.443
										c-0.325,1.401-0.923,2.782-1.494,4.152c-1.169,2.74-2.374,5.481-3.21,8.333c-0.926,2.837-1.191,5.814-1.5,8.658
										c-0.318,2.867-0.633,5.707-0.945,8.517c-0.636,5.597-1.054,11.191-3.33,16.035c-1.125,2.411-2.617,4.641-3.726,7.076
										c-1.145,2.429-1.652,5.099-1.785,7.668c-0.29,5.14,0.378,10.164-1.012,14.717c-1.381,4.531-4.286,8.311-5.754,12.609
										c-1.571,4.342-0.92,8.84-0.285,12.822c0.643,4.01,1.289,7.913,0.431,11.454c-0.77,3.577-3.302,6.165-4.905,9.002
										c-0.834,1.408-1.432,2.932-1.652,4.454c-0.233,1.517-0.221,2.979-0.28,4.36c-0.069,1.372-0.147,2.717-0.568,3.871
										c-0.418,1.15-1.233,2.059-2.066,2.803c-1.739,1.439-3.589,2.32-5.217,2.942c-1.638,0.617-3.088,0.958-4.267,1.158
										c-1.18,0.214-2.096,0.244-2.709,0.262C99.357,450.464,99.039,450.474,99.039,450.474z"/>
								</g>
							</g>
						</g>
					</g>
				</g>
				<g>
					<g>
						<g>
							<g>
								<g>
									<path style="fill:#263238;" d="M141.121,293.575c-0.014-0.003-0.058,0.133-0.129,0.402
										c-0.078,0.319-0.175,0.713-0.294,1.199c-0.262,1.049-0.574,2.633-1.077,4.611c-0.523,1.972-1.731,4.205-2.765,6.956
										c-1.074,2.729-2.163,5.893-3.165,9.447c-1.016,3.551-1.917,7.496-2.857,11.721c-0.971,4.217-1.939,8.741-4.263,13.007
										c-1.092,2.163-2.321,4.353-3.297,6.748c-1.001,2.396-1.54,5.014-1.918,7.642c-0.64,5.276-1.608,10.633-2.871,16.113
										c-2.67,10.914-5.214,21.309-7.53,30.775c-2.372,9.433-4.509,17.933-6.311,25.099c-1.753,7.101-3.178,12.87-4.183,16.939
										c-0.463,1.953-0.829,3.494-1.095,4.616c-0.107,0.489-0.194,0.885-0.264,1.206c-0.055,0.273-0.076,0.414-0.062,0.418
										c0.014,0.004,0.064-0.131,0.146-0.396c0.092-0.315,0.206-0.705,0.346-1.185c0.304-1.112,0.722-2.641,1.251-4.576
										c1.068-4.053,2.583-9.799,4.447-16.872c1.853-7.153,4.05-15.638,6.489-25.053c2.338-9.468,4.905-19.865,7.601-30.783
										c1.264-5.473,2.242-10.929,2.866-16.179c0.37-2.611,0.885-5.134,1.846-7.458c0.941-2.334,2.151-4.513,3.243-6.7
										c2.343-4.347,3.319-9.007,4.252-13.208c0.912-4.236,1.774-8.169,2.747-11.713c0.96-3.547,2.003-6.705,3.029-9.437
										c0.98-2.742,2.149-5.001,2.639-7.04c0.461-2.027,0.715-3.594,0.924-4.663c0.085-0.493,0.155-0.893,0.211-1.217
										C141.12,293.72,141.135,293.578,141.121,293.575z"/>
								</g>
							</g>
						</g>
					</g>
				</g>
			</g>
			<g>
				<g>
					<g>
						<g>
							<g>
								<path style="fill:#E8505B;" d="M101.392,450.564c8.699-5.171,11.193-20.475,7.565-29.922
									c-3.629-9.447-9.981-18.078-10.96-28.151c-0.753-7.743,1.783-15.689-0.021-23.257c-2.433-10.213-12.405-18.124-12.29-28.622
									c0.064-5.891,3.416-11.433,3.149-17.318c-0.327-7.218-5.868-12.945-9.299-19.303c-5.252-9.733-5.598-21.24-7.394-32.152
									c-1.796-10.913-5.955-22.6-15.626-27.963c-1.428,9.265-3.867,15.61-3.101,28.162c0.275,4.508,5.511,13.137,6.224,23.015
									c0.426,5.905,0.721,11.818,1.082,17.727c0.351,5.75,0.724,11.605,2.785,16.985c1.579,4.122,4.117,7.867,5.29,12.123
									c2.206,8.007-0.693,16.679,1.089,24.792c1.509,6.873,6.266,12.788,7.238,19.757c1.366,9.792-4.972,19.966-1.728,29.306
									c1.61,4.635,5.422,8.356,6.504,13.142c0.84,3.713-0.076,7.644,0.685,11.374C83.808,446.268,95.27,450.935,101.392,450.564"
									/>
							</g>
						</g>
					</g>
				</g>
				<g>
					<g>
						<g>
							<g>
								<g>
									<path style="fill:#263238;" d="M58.914,253.073c-0.015,0.002-0.002,0.18,0.038,0.523c0.05,0.389,0.115,0.891,0.196,1.523
										c0.2,1.338,0.424,3.303,0.876,5.843c0.486,2.555,1.802,5.431,2.854,8.899c1.11,3.457,2.214,7.446,3.19,11.912
										c0.993,4.463,1.823,9.403,2.695,14.72c0.901,5.277,1.822,11.109,4.459,16.644c1.22,2.781,2.589,5.564,3.617,8.529
										c1.053,2.955,1.537,6.133,1.835,9.4c0.449,6.563,1.323,13.387,2.551,20.264c2.664,13.728,5.202,26.803,7.512,38.704
										c2.435,11.854,4.628,22.534,6.475,31.525c1.865,8.925,3.378,16.167,4.438,21.238c0.533,2.46,0.951,4.392,1.249,5.766
										c0.144,0.62,0.258,1.113,0.346,1.495c0.083,0.336,0.132,0.507,0.146,0.504c0.014-0.003-0.006-0.179-0.061-0.521
										c-0.067-0.387-0.154-0.885-0.263-1.512c-0.26-1.382-0.626-3.324-1.092-5.798c-0.996-5.085-2.418-12.344-4.171-21.293
										c-1.796-9.001-3.928-19.693-6.295-31.562c-2.288-11.898-4.802-24.969-7.442-38.693c-1.227-6.884-2.096-13.609-2.56-20.198
										c-0.304-3.286-0.808-6.56-1.897-9.588c-1.059-3.028-2.447-5.823-3.668-8.581c-2.622-5.453-3.543-11.148-4.481-16.445
										c-0.901-5.307-1.769-10.261-2.804-14.734c-1.018-4.476-2.168-8.472-3.326-11.928c-1.105-3.48-2.462-6.331-2.984-8.821
										c-0.495-2.494-0.778-4.479-1.031-5.8c-0.116-0.626-0.208-1.123-0.28-1.509C58.971,253.243,58.929,253.071,58.914,253.073z"
										/>
								</g>
							</g>
						</g>
					</g>
				</g>
			</g>
		</g>
	</g>
	<g>
		<g>
			<g>
				<g>
					<path style="fill:#E8505B;" d="M437.993,390.966c2.741,1.19,4.757,3.723,5.768,6.534c1.012,2.811,1.103,5.883,0.766,8.852
						c-0.651,5.744-3.915,11.543-7.429,16.133c-4.837-4.221-5.95-11.586-6.28-15.357
						C430.297,401.167,432.975,390.077,437.993,390.966"/>
				</g>
			</g>
		</g>
		<g>
			<g>
				<g>
					<path style="fill:#E8505B;" d="M442.721,431.965c-0.774-3.247,0.577-6.808,3.069-9.028c2.492-2.22,5.974-3.16,9.302-2.905
						c1.539,0.118,3.202,0.566,4.083,1.833c0.824,1.184,0.731,2.837,0.063,4.116c-0.668,1.279-1.825,2.234-3.047,3.001
						C451.999,431.612,447.46,433.387,442.721,431.965"/>
				</g>
			</g>
		</g>
		<g>
			<g>
				<g>
					<g>
						<path style="fill:#263238;" d="M436.518,449.578c-0.029-0.007,0.037-0.426,0.172-1.179c0.152-0.83,0.349-1.902,0.585-3.19
							c0.535-2.665,1.221-6.484,3.292-10.191c2.044-3.698,4.904-6.42,7.313-7.772c1.196-0.692,2.243-1.104,2.982-1.319
							c0.365-0.123,0.663-0.17,0.859-0.218c0.198-0.042,0.303-0.057,0.307-0.043c0.034,0.094-1.676,0.401-3.995,1.834
							c-2.325,1.391-5.09,4.087-7.1,7.722c-2.031,3.63-2.76,7.395-3.368,10.047c-0.293,1.336-0.531,2.42-0.716,3.164
							C436.666,449.177,436.545,449.584,436.518,449.578z"/>
					</g>
				</g>
			</g>
		</g>
		<g>
			<g>
				<g>
					<g>
						<path style="fill:#263238;" d="M436.7,399.591c0.014,0,0.034,0.177,0.059,0.515c0.023,0.383,0.052,0.873,0.088,1.481
							c0.069,1.286,0.145,3.148,0.218,5.449c0.149,4.603,0.266,10.965,0.237,17.991c-0.032,7.029-0.204,13.39-0.392,17.992
							c-0.094,2.301-0.186,4.162-0.266,5.447c-0.041,0.607-0.075,1.097-0.101,1.48c-0.028,0.338-0.049,0.515-0.064,0.514
							c-0.014-0.001-0.021-0.179-0.021-0.518c0.006-0.383,0.013-0.874,0.022-1.483c0.033-1.339,0.077-3.188,0.132-5.45
							c0.113-4.602,0.238-10.959,0.27-17.984c0.029-7.022-0.041-13.38-0.114-17.983c-0.035-2.262-0.064-4.111-0.085-5.451
							c-0.004-0.608-0.007-1.1-0.009-1.483C436.678,399.77,436.686,399.591,436.7,399.591z"/>
					</g>
				</g>
			</g>
		</g>
		<g>
			<g>
				<g>
					<path style="fill:#E8505B;" d="M434.352,435.462c-1.101-6.95-5.785-13.234-12.131-16.274c-1.616-0.774-3.727-1.28-5.056-0.078
						c-1.331,1.204-1.033,3.366-0.382,5.038c2.709,6.96,9.986,11.873,17.454,11.785"/>
				</g>
			</g>
		</g>
		<g>
			<g>
				<g>
					<g>
						<path style="fill:#263238;" d="M423.005,424.637c0.013-0.026,0.376,0.134,1.026,0.448c0.326,0.155,0.725,0.346,1.16,0.618
							c0.435,0.271,0.96,0.536,1.476,0.926c0.528,0.373,1.117,0.769,1.689,1.271c0.602,0.468,1.186,1.034,1.798,1.634
							c1.192,1.228,2.391,2.694,3.416,4.389c1.009,1.705,1.74,3.454,2.25,5.088c0.23,0.826,0.452,1.609,0.568,2.363
							c0.164,0.745,0.224,1.452,0.29,2.095c0.089,0.642,0.059,1.23,0.081,1.742c0.023,0.513-0.01,0.954-0.039,1.314
							c-0.053,0.72-0.096,1.115-0.124,1.113c-0.095-0.004,0.07-1.598-0.212-4.138c-0.084-0.633-0.16-1.328-0.336-2.058
							c-0.129-0.74-0.36-1.507-0.596-2.316c-0.523-1.601-1.25-3.313-2.241-4.987c-1.007-1.665-2.176-3.112-3.333-4.335
							c-0.595-0.597-1.161-1.164-1.745-1.637c-0.555-0.507-1.126-0.911-1.636-1.295
							C424.419,425.381,422.963,424.718,423.005,424.637z"/>
					</g>
				</g>
			</g>
		</g>
	</g>
</g>
<g id="Character">
	<g>
		<g>
			<g>
				<g>
					<path style="fill:#263238;" d="M367.162,231.209c0,0-46.691-33.088-52.604-36.342c-5.633-3.1-23.496-5.352-25.102-5.742
						l-31.988-6.955l-48.877,1.461l-14.02,8.43l-35.474,16.339c-9.668,4.453-17.288,12.407-21.322,22.258l-22.405,54.71
						l55.588,16.443l1.73,57.71l-13.111,90.921h162.722l-8.188-174.257l16.939,3.729L367.162,231.209z"/>
				</g>
				<g>
					<g>
						<path style="fill:#FFFFFF;" d="M171.99,278.568c0,0-0.585,0.431-1.719,1.089c-1.132,0.632-2.845,1.582-5.195,1.903
							c-2.356,0.327-5.167-0.243-8.112-1.176c-2.964-0.932-6.073-2.366-9.241-4.019c-3.172-1.651-6.138-3.324-8.924-4.669
							c-2.78-1.355-5.373-2.389-7.617-3.044c-2.24-0.673-4.117-0.966-5.416-1.102c-0.65-0.068-1.157-0.103-1.501-0.114
							c-0.344-0.019-0.525-0.039-0.525-0.039s0.727-0.043,2.034,0.073c1.305,0.112,3.195,0.384,5.45,1.041
							c2.259,0.639,4.869,1.664,7.66,3.012c2.798,1.339,5.769,3.009,8.937,4.657c3.164,1.65,6.258,3.083,9.204,4.02
							c2.932,0.94,5.713,1.517,8.036,1.213c2.32-0.297,4.033-1.218,5.174-1.827c0.571-0.319,1.01-0.575,1.302-0.757
							C171.828,278.652,171.99,278.568,171.99,278.568z"/>
					</g>
				</g>
				<g>
					<g>
						<path style="fill:#FFFFFF;" d="M169.619,251.612c0,0-0.128,0.006-0.37-0.003c-0.305-0.015-0.653-0.031-1.06-0.051
							c-0.92-0.043-2.25-0.145-3.889-0.307c-3.278-0.321-7.794-0.966-12.697-2.091c-4.903-1.132-9.247-2.525-12.336-3.669
							c-1.545-0.57-2.786-1.06-3.632-1.423c-0.374-0.16-0.695-0.297-0.975-0.417c-0.222-0.098-0.334-0.159-0.334-0.159
							s0.123,0.035,0.351,0.12c0.284,0.109,0.61,0.235,0.989,0.381c0.855,0.34,2.102,0.808,3.652,1.36
							c3.098,1.107,7.439,2.475,12.333,3.604c4.893,1.122,9.396,1.789,12.666,2.148c1.635,0.181,2.962,0.305,3.879,0.373
							c0.405,0.034,0.753,0.064,1.056,0.09C169.493,251.589,169.619,251.612,169.619,251.612z"/>
					</g>
				</g>
				<g>
					<g>
						<path style="fill:#FFFFFF;" d="M204.586,194.867c0,0-0.412,0.684-1.296,1.822c-0.875,1.145-2.315,2.678-4.336,4.283
							c-2.014,1.615-4.665,3.208-7.757,4.642c-3.096,1.43-6.639,2.675-10.404,3.797c-3.768,1.115-7.377,2.105-10.607,3.17
							c-3.23,1.061-6.083,2.187-8.378,3.344c-2.298,1.15-4.063,2.263-5.221,3.114c-0.597,0.402-1.015,0.775-1.322,0.996
							c-0.3,0.231-0.465,0.344-0.465,0.344s0.589-0.539,1.739-1.406c1.146-0.873,2.905-2.01,5.202-3.18
							c2.295-1.178,5.152-2.322,8.384-3.395c3.233-1.077,6.842-2.073,10.607-3.187c3.76-1.12,7.294-2.356,10.384-3.771
							c3.085-1.419,5.73-2.991,7.746-4.583c2.022-1.583,3.472-3.092,4.363-4.218c0.478-0.538,0.768-1.019,1.006-1.313
							C204.459,195.021,204.586,194.867,204.586,194.867z"/>
					</g>
				</g>
				<g>
					<g>
						<path style="fill:#FFFFFF;" d="M304.636,202.324c0,0-0.149-0.074-0.423-0.231c-0.276-0.152-0.667-0.406-1.202-0.674
							c-1.052-0.569-2.619-1.32-4.645-2.012c-2.023-0.697-4.491-1.35-7.274-1.867c-2.78-0.531-5.869-0.942-9.107-1.396
							c-6.44-0.912-12.266-1.736-16.586-2.348c-2.059-0.301-3.755-0.55-5.023-0.735c-0.542-0.084-0.992-0.153-1.364-0.21
							c-0.312-0.05-0.474-0.087-0.474-0.087s0.166,0.009,0.479,0.046c0.373,0.047,0.825,0.103,1.37,0.172
							c1.27,0.169,2.969,0.395,5.032,0.67c4.323,0.596,10.152,1.4,16.595,2.288c3.238,0.453,6.329,0.871,9.115,1.414
							c2.788,0.528,5.263,1.199,7.287,1.916c2.027,0.713,3.592,1.487,4.634,2.08C304.096,201.936,304.636,202.324,304.636,202.324z"
							/>
					</g>
				</g>
				<g>
					<g>
						<path style="fill:#FFFFFF;" d="M281.974,213.362c0,0-0.37,0.174-1.084,0.486c-0.71,0.32-1.768,0.766-3.142,1.315
							c-2.749,1.09-6.763,2.594-11.842,4.08c-5.075,1.48-11.203,3.021-18.135,4.003c-6.93,1.063-14.659,1.065-22.716,0.797
							c-8.064-0.263-15.754-0.614-22.732-0.175c-6.973,0.41-13.199,1.62-18.198,3.321c-5.019,1.667-8.761,3.828-11.193,5.489
							c-1.197,0.865-2.12,1.547-2.704,2.062c-0.599,0.496-0.922,0.749-0.922,0.749s0.303-0.274,0.895-0.781
							c0.576-0.526,1.492-1.219,2.685-2.096c2.423-1.685,6.165-3.873,11.192-5.562c5.007-1.724,11.246-2.952,18.233-3.373
							c6.991-0.451,14.689-0.104,22.75,0.158c8.056,0.268,15.766,0.272,22.683-0.779c6.921-0.97,13.045-2.494,18.12-3.955
							c5.079-1.466,9.097-2.948,11.853-4.014c1.377-0.537,2.44-0.971,3.155-1.278C281.592,213.51,281.974,213.362,281.974,213.362z"
							/>
					</g>
				</g>
				<g>
					<g>
						<path style="fill:#FFFFFF;" d="M297.315,223.144c0.002,0.007-0.059,0.035-0.179,0.081c-0.169,0.063-0.342,0.127-0.526,0.195
							c-0.457,0.171-1.129,0.386-1.967,0.629c-1.675,0.473-4.054,0.997-6.729,1.03c-2.676,0.026-5.067-0.473-6.737-0.968
							c-0.835-0.253-1.504-0.48-1.956-0.664c-0.182-0.073-0.354-0.142-0.521-0.209c-0.118-0.05-0.179-0.079-0.176-0.086
							c0.003-0.007,0.068,0.01,0.191,0.047c0.171,0.055,0.347,0.112,0.534,0.172c0.459,0.16,1.133,0.365,1.968,0.599
							c1.672,0.456,4.044,0.927,6.695,0.901c2.649-0.033,5.014-0.529,6.692-0.964c0.839-0.224,1.516-0.417,1.98-0.564
							c0.188-0.055,0.366-0.107,0.538-0.158C297.247,223.152,297.313,223.137,297.315,223.144z"/>
					</g>
				</g>
				<g>
					<g>
						<path style="fill:#FFFFFF;" d="M265.769,251.436c0,0-4.796,1.013-12.631,2.181c-3.916,0.59-8.597,1.175-13.808,1.694
							c-5.213,0.493-10.957,0.909-16.997,1.139c-6.042,0.209-11.803,0.21-17.039,0.096c-5.236-0.14-9.947-0.384-13.895-0.689
							c-7.899-0.597-12.755-1.26-12.755-1.26s0.306,0.018,0.886,0.073c0.625,0.062,1.471,0.145,2.537,0.251
							c2.201,0.233,5.394,0.51,9.342,0.789c3.948,0.286,8.657,0.514,13.889,0.644c5.233,0.103,10.989,0.096,17.026-0.112
							c6.035-0.229,11.775-0.639,16.986-1.122c5.208-0.508,9.888-1.078,13.805-1.649c3.918-0.564,7.082-1.072,9.261-1.464
							c1.056-0.182,1.894-0.327,2.513-0.434C265.465,251.477,265.769,251.436,265.769,251.436z"/>
					</g>
				</g>
				<g>
					<g>
						<path style="fill:#FFFFFF;" d="M304.934,248.598c0,0-0.125,0.016-0.363,0.025c-0.301,0.009-0.644,0.019-1.043,0.031
							c-0.906,0.025-2.217,0.038-3.837,0.035c-3.239-0.009-7.718-0.126-12.646-0.548c-4.929-0.427-9.362-1.09-12.55-1.666
							c-1.594-0.289-2.881-0.541-3.766-0.734c-0.39-0.085-0.725-0.159-1.019-0.223c-0.232-0.053-0.352-0.092-0.352-0.092
							s0.126,0.011,0.361,0.051c0.296,0.053,0.634,0.114,1.026,0.185c0.99,0.175,2.257,0.4,3.775,0.669
							c3.192,0.538,7.621,1.177,12.543,1.603c4.921,0.422,9.393,0.562,12.629,0.609c1.542,0.012,2.829,0.023,3.834,0.031
							c0.399,0.003,0.742,0.006,1.043,0.008C304.809,248.585,304.934,248.598,304.934,248.598z"/>
					</g>
				</g>
				<g>
					<g>
						<path style="fill:#FFFFFF;" d="M254.976,289.824c0,0-0.281,0.051-0.82,0.129c-0.586,0.082-1.372,0.191-2.358,0.328
							c-1.024,0.148-2.277,0.321-3.744,0.415c-1.465,0.1-3.129,0.307-4.979,0.337c-1.848,0.063-3.872,0.166-6.047,0.129
							c-1.087-0.008-2.212,0.007-3.37-0.02c-1.158-0.038-2.349-0.077-3.57-0.117c-4.885-0.198-10.248-0.567-15.867-1.059
							c-5.622-0.473-10.973-0.963-15.849-1.286c-4.875-0.304-9.273-0.508-12.967-0.455c-0.922,0.006-1.801,0.011-2.635,0.017
							c-0.829,0.041-1.612,0.08-2.347,0.116c-1.466,0.062-2.729,0.128-3.754,0.257c-0.991,0.098-1.779,0.176-2.368,0.234
							c-0.542,0.051-0.828,0.068-0.828,0.068s0.282-0.045,0.822-0.109c0.588-0.068,1.376-0.159,2.365-0.273
							c1.026-0.142,2.288-0.219,3.756-0.293c0.736-0.041,1.52-0.085,2.35-0.132c0.835-0.01,1.715-0.02,2.638-0.031
							c3.699-0.072,8.102,0.117,12.981,0.41c4.88,0.313,10.233,0.797,15.854,1.27c5.617,0.492,10.976,0.867,15.857,1.075
							c1.22,0.043,2.41,0.085,3.567,0.125c1.156,0.03,2.28,0.019,3.366,0.03c2.173,0.045,4.194-0.049,6.04-0.103
							c1.848-0.02,3.51-0.217,4.975-0.306c1.466-0.083,2.72-0.244,3.744-0.38c0.988-0.121,1.775-0.217,2.362-0.289
							C254.69,289.847,254.976,289.824,254.976,289.824z"/>
					</g>
				</g>
				<g>
					<g>
						<path style="fill:#FFFFFF;" d="M313.85,278.084c0,0-0.152,0.028-0.443,0.061c-0.353,0.038-0.772,0.082-1.274,0.135
							c-1.106,0.118-2.711,0.253-4.696,0.387c-3.969,0.271-9.469,0.467-15.541,0.31c-6.073-0.163-11.556-0.647-15.506-1.126
							c-1.975-0.238-3.57-0.457-4.669-0.633c-0.498-0.079-0.915-0.146-1.265-0.202c-0.289-0.048-0.439-0.084-0.439-0.084
							s0.154,0.008,0.445,0.043c0.351,0.045,0.77,0.099,1.27,0.163c1.102,0.151,2.699,0.348,4.675,0.567
							c3.951,0.441,9.428,0.902,15.495,1.064c6.064,0.156,11.558-0.016,15.526-0.249c1.985-0.115,3.59-0.228,4.698-0.321
							c0.503-0.038,0.924-0.07,1.277-0.096C313.695,278.084,313.85,278.084,313.85,278.084z"/>
					</g>
				</g>
				<g>
					<g>
						<path style="fill:#FFFFFF;" d="M314.558,314.424c0,0-0.504-0.023-1.461-0.086c-0.958-0.046-2.366-0.2-4.186-0.249
							c-3.637-0.186-8.914-0.228-15.418,0.094c-6.505,0.311-14.226,1.088-22.764,2.213c-8.539,1.113-17.896,2.576-27.756,3.846
							c-9.865,1.252-19.322,2.055-27.943,2.127c-8.619,0.075-16.387-0.53-22.81-1.654c-6.425-1.105-11.521-2.542-14.951-3.772
							c-0.87-0.272-1.625-0.563-2.275-0.828c-0.645-0.255-1.195-0.472-1.65-0.652c-0.891-0.354-1.355-0.549-1.355-0.549
							s0.475,0.169,1.371,0.51c0.457,0.175,1.01,0.386,1.657,0.633c0.652,0.259,1.408,0.543,2.28,0.809
							c3.434,1.206,8.53,2.619,14.949,3.704c6.417,1.104,14.175,1.693,22.784,1.607c8.611-0.083,18.059-0.891,27.918-2.142
							c9.856-1.27,19.214-2.727,27.758-3.83c8.542-1.115,16.27-1.877,22.781-2.17c6.51-0.304,11.79-0.239,15.429-0.028
							C312.553,314.209,314.558,314.424,314.558,314.424z"/>
					</g>
				</g>
				<g>
					<g>
						<path style="fill:#FFFFFF;" d="M259.57,351.758c0,0-4.808,0.82-12.646,1.658c-3.918,0.427-8.596,0.809-13.798,1.106
							c-5.203,0.268-10.932,0.436-16.945,0.404c-6.016-0.054-11.742-0.303-16.942-0.646c-5.198-0.372-9.871-0.82-13.782-1.303
							c-7.825-0.95-12.62-1.838-12.62-1.838s0.303,0.032,0.878,0.114c0.619,0.09,1.456,0.213,2.51,0.367
							c1.089,0.167,2.422,0.363,3.975,0.555c1.552,0.197,3.316,0.452,5.275,0.655c3.911,0.464,8.582,0.897,13.778,1.258
							c5.197,0.332,10.919,0.575,16.93,0.629c6.009,0.032,11.733-0.129,16.933-0.387c5.199-0.287,9.876-0.653,13.793-1.061
							c1.962-0.175,3.729-0.405,5.284-0.58c1.555-0.171,2.891-0.347,3.983-0.499c1.057-0.139,1.895-0.25,2.515-0.331
							C259.266,351.786,259.57,351.758,259.57,351.758z"/>
					</g>
				</g>
				<g>
					<g>
						<path style="fill:#FFFFFF;" d="M313.956,344.599c0,0-0.181,0.067-0.532,0.176c-0.407,0.123-0.915,0.277-1.537,0.465
							c-1.334,0.404-3.276,0.953-5.685,1.597c-4.816,1.292-11.522,2.892-19.006,4.267c-7.488,1.37-14.326,2.252-19.287,2.753
							c-2.48,0.252-4.49,0.428-5.881,0.524c-0.648,0.045-1.177,0.081-1.601,0.111c-0.366,0.023-0.559,0.025-0.559,0.025
							s0.191-0.03,0.556-0.066c0.423-0.04,0.951-0.089,1.598-0.15c1.388-0.121,3.396-0.319,5.872-0.589
							c4.954-0.538,11.783-1.443,19.265-2.812c7.478-1.375,14.184-2.951,19.006-4.205c2.412-0.626,4.359-1.153,5.7-1.533
							c0.626-0.173,1.138-0.314,1.547-0.427C313.767,344.639,313.956,344.599,313.956,344.599z"/>
					</g>
				</g>
				<g>
					<g>
						<path style="fill:#FFFFFF;" d="M221.423,393.454c0,0-2.952,0.511-7.782,0.764c-2.414,0.136-5.296,0.147-8.49,0.01
							c-3.192-0.171-6.695-0.51-10.337-1.107c-3.639-0.622-7.062-1.443-10.137-2.32c-3.065-0.911-5.787-1.859-8.024-2.774
							c-4.485-1.812-7.109-3.256-7.109-3.256s0.175,0.068,0.498,0.216c0.376,0.175,0.842,0.391,1.41,0.656
							c0.609,0.292,1.357,0.641,2.244,1.006c0.884,0.371,1.877,0.826,3.011,1.242c2.241,0.896,4.962,1.828,8.024,2.727
							c3.071,0.866,6.487,1.679,10.118,2.299c3.634,0.595,7.128,0.939,10.312,1.12c3.187,0.147,6.063,0.152,8.474,0.035
							c1.207-0.024,2.294-0.131,3.251-0.194c0.958-0.057,1.779-0.142,2.45-0.22c0.624-0.065,1.135-0.118,1.547-0.161
							C221.236,393.461,221.423,393.454,221.423,393.454z"/>
					</g>
				</g>
				<g>
					<g>
						<path style="fill:#FFFFFF;" d="M317.623,390.903c0,0-0.341,0.067-0.995,0.174c-0.694,0.111-1.65,0.265-2.859,0.459
							c-2.483,0.399-6.081,0.94-10.532,1.575c-8.901,1.273-21.226,2.85-34.879,4.207c-13.659,1.351-26.054,2.225-35.032,2.725
							c-4.489,0.251-8.123,0.427-10.635,0.523c-1.224,0.047-2.19,0.084-2.893,0.111c-0.661,0.023-1.009,0.025-1.009,0.025
							s0.346-0.03,1.007-0.067c0.702-0.037,1.668-0.087,2.891-0.15c2.553-0.142,6.174-0.342,10.631-0.589
							c8.974-0.537,21.365-1.434,35.02-2.785c13.65-1.357,25.974-2.91,34.879-4.146c4.418-0.633,8.008-1.147,10.54-1.51
							c1.212-0.178,2.169-0.318,2.865-0.42C317.277,390.942,317.623,390.903,317.623,390.903z"/>
					</g>
				</g>
				<g>
					<g>
						<path style="fill:#FFFFFF;" d="M322.864,427.732c0,0-2.187,0.456-6.172,1.108c-3.985,0.647-9.777,1.459-16.974,2.056
							c-7.195,0.597-15.802,0.93-25.347,0.62c-9.547-0.306-20-1.371-30.931-2.713c-10.936-1.338-21.346-2.694-30.861-3.437
							c-9.512-0.77-18.119-0.916-25.326-0.563c-7.208,0.366-13.003,1.186-16.966,1.939c-1.982,0.381-3.516,0.7-4.548,0.953
							c-1.036,0.236-1.583,0.35-1.583,0.35s0.54-0.141,1.573-0.391c1.029-0.266,2.561-0.598,4.542-0.991
							c3.962-0.778,9.759-1.622,16.973-2.007c7.213-0.372,15.829-0.242,25.348,0.518c9.523,0.734,19.937,2.084,30.871,3.422
							c10.929,1.342,21.375,2.411,30.912,2.728c9.536,0.32,18.137,0.003,25.329-0.575c7.194-0.578,12.986-1.367,16.973-1.989
							c1.993-0.319,3.54-0.571,4.586-0.761C322.312,427.817,322.864,427.732,322.864,427.732z"/>
					</g>
				</g>
				<g>
					<g>
						<path style="fill:#FFFFFF;" d="M352.196,222.257c0,0-0.289,0.794-0.939,2.175c-0.643,1.385-1.72,3.322-3.266,5.573
							c-1.54,2.256-3.6,4.78-6.02,7.454c-2.417,2.678-5.199,5.504-8.022,8.556c-2.814,3.059-5.319,6.139-7.297,9.148
							c-1.969,3.011-3.432,5.928-4.297,8.508c-0.877,2.575-1.269,4.759-1.385,6.275c-0.103,0.755-0.069,1.35-0.104,1.749
							c-0.017,0.401-0.037,0.612-0.037,0.612s-0.045-0.845,0.06-2.368c0.092-1.524,0.463-3.723,1.327-6.316
							c0.852-2.599,2.309-5.537,4.276-8.566c1.976-3.026,4.484-6.119,7.304-9.184c2.827-3.056,5.612-5.876,8.033-8.544
							c2.425-2.663,4.491-5.17,6.042-7.409c1.557-2.234,2.65-4.154,3.314-5.525c0.358-0.673,0.568-1.228,0.746-1.587
							C352.098,222.445,352.196,222.257,352.196,222.257z"/>
					</g>
				</g>
				<g>
					<g>
						<path style="fill:#FFFFFF;" d="M306.138,239.487c0,0,0.113-0.091,0.34-0.248c0.279-0.19,0.607-0.412,0.995-0.677
							c0.872-0.574,2.103-1.456,3.583-2.592c1.487-1.13,3.189-2.564,5.003-4.237c1.796-1.692,3.695-3.635,5.55-5.796
							c1.841-2.175,3.459-4.358,4.845-6.4c1.364-2.057,2.511-3.964,3.391-5.611c0.887-1.642,1.563-2.996,1.992-3.949
							c0.199-0.425,0.367-0.784,0.51-1.09c0.119-0.248,0.191-0.375,0.191-0.375s-0.818,2.17-2.563,5.483
							c-0.865,1.66-2.002,3.58-3.361,5.648c-1.382,2.054-2.999,4.247-4.846,6.428c-1.861,2.168-3.77,4.113-5.578,5.802
							c-1.827,1.67-3.543,3.096-5.044,4.213C308.152,238.335,306.138,239.487,306.138,239.487z"/>
					</g>
				</g>
				<g>
					<g>
						<g>
							<g>
								<g>
									<path style="fill:#455A64;" d="M234.67,286.251c-0.003-0.008,0.079-0.046,0.241-0.111c0.189-0.073,0.427-0.165,0.722-0.279
										c0.644-0.218,1.56-0.624,2.728-1.164c2.3-1.141,5.523-3.1,8.849-6.293c3.353-3.157,6.8-7.467,10.132-12.57
										c3.348-5.099,6.696-10.922,9.874-17.204c6.361-12.577,10.866-24.547,14.019-33.221c1.577-4.341,2.799-7.874,3.655-10.312
										c0.419-1.191,0.749-2.129,0.988-2.807c0.11-0.296,0.198-0.535,0.269-0.726c0.063-0.163,0.1-0.245,0.108-0.242
										c0.008,0.003-0.012,0.09-0.059,0.258c-0.058,0.195-0.131,0.439-0.222,0.742c-0.217,0.684-0.517,1.633-0.898,2.837
										c-0.799,2.457-1.971,6.009-3.506,10.369c-3.071,8.711-7.529,20.719-13.906,33.329c-3.186,6.298-6.555,12.131-9.935,17.231
										c-3.366,5.109-6.865,9.426-10.276,12.575c-3.384,3.185-6.667,5.117-9.008,6.21c-1.189,0.517-2.121,0.895-2.778,1.083
										c-0.302,0.095-0.545,0.171-0.739,0.232C234.759,286.238,234.673,286.259,234.67,286.251z"/>
								</g>
							</g>
							<g>
								<g>
									<path style="fill:#455A64;" d="M232.995,307.41c-0.009-0.015,0.179-0.158,0.546-0.416c0.41-0.283,0.947-0.654,1.615-1.116
										c1.397-0.975,3.407-2.403,5.823-4.258c4.851-3.686,11.217-9.197,18.065-15.491c3.434-3.14,6.724-6.109,9.569-8.954
										c2.852-2.839,5.238-5.57,7.055-8.007c1.828-2.429,3.075-4.56,3.861-6.066c0.418-0.742,0.679-1.35,0.885-1.748
										c0.2-0.402,0.313-0.61,0.329-0.603c0.016,0.007-0.066,0.228-0.236,0.644c-0.177,0.413-0.411,1.036-0.804,1.795
										c-0.737,1.541-1.946,3.715-3.75,6.187c-1.792,2.48-4.167,5.254-7.013,8.122c-2.839,2.876-6.125,5.859-9.559,8.999
										c-6.851,6.297-13.271,11.781-18.189,15.404c-2.449,1.823-4.495,3.21-5.928,4.137c-0.716,0.465-1.285,0.805-1.669,1.039
										C233.211,307.31,233.004,307.424,232.995,307.41z"/>
								</g>
							</g>
							<g>
								<g>
									<path style="fill:#455A64;" d="M206.014,414.318c-0.007-0.005,0.033-0.081,0.12-0.225c0.104-0.168,0.233-0.376,0.393-0.635
										c0.352-0.554,0.892-1.358,1.613-2.375c1.449-2.029,3.68-4.872,6.624-8.218c5.925-6.656,14.229-15.727,23.378-25.774
										c9.171-10.008,17.472-19.065,23.512-25.656c3.006-3.244,5.447-5.88,7.167-7.736c0.833-0.884,1.491-1.581,1.967-2.086
										c0.212-0.217,0.383-0.393,0.521-0.534c0.119-0.118,0.184-0.176,0.19-0.17c0.006,0.006-0.045,0.075-0.152,0.205
										c-0.128,0.15-0.287,0.337-0.484,0.568c-0.46,0.521-1.094,1.239-1.898,2.15c-1.692,1.882-4.093,4.554-7.05,7.843
										c-6.012,6.616-14.275,15.709-23.404,25.755c-9.158,10.012-17.449,19.075-23.483,25.671
										c-2.973,3.31-5.238,6.109-6.732,8.099c-0.744,0.997-1.308,1.781-1.687,2.316c-0.177,0.247-0.32,0.446-0.434,0.606
										C206.076,414.256,206.021,414.323,206.014,414.318z"/>
								</g>
							</g>
						</g>
						<g>
							<g>
								<path style="fill:#455A64;" d="M299.364,234.591c-0.034,0.007-0.166-0.534-0.376-1.521
									c-0.112-0.493-0.232-1.099-0.318-1.811c-0.093-0.711-0.235-1.518-0.282-2.421c-0.075-0.901-0.148-1.889-0.141-2.952
									c-0.042-1.064,0.03-2.198,0.082-3.393c0.178-2.384,0.546-4.996,1.199-7.681c0.681-2.678,1.581-5.158,2.541-7.348
									c0.514-1.08,0.983-2.116,1.518-3.036c0.493-0.943,1.02-1.782,1.509-2.542c0.464-0.776,0.968-1.422,1.383-2.006
									c0.41-0.589,0.8-1.068,1.13-1.451c0.649-0.774,1.019-1.189,1.045-1.167c0.026,0.022-0.293,0.48-0.891,1.287
									c-0.305,0.399-0.67,0.892-1.055,1.493c-0.391,0.596-0.871,1.251-1.312,2.033c-0.466,0.766-0.971,1.607-1.443,2.55
									c-0.515,0.92-0.965,1.952-1.462,3.026c-0.927,2.178-1.804,4.634-2.477,7.283c-0.646,2.655-1.023,5.235-1.225,7.593
									c-0.064,1.182-0.151,2.304-0.127,3.358c-0.025,1.054,0.027,2.034,0.079,2.929c0.023,0.897,0.14,1.701,0.206,2.411
									c0.059,0.711,0.15,1.318,0.233,1.813C299.33,234.029,299.397,234.584,299.364,234.591z"/>
							</g>
						</g>
						<g>
							<g>
								<path style="fill:#455A64;" d="M313.914,270.467c-0.128,0.054-1.928-3.922-4.02-8.878c-2.093-4.958-3.686-9.02-3.559-9.074
									c0.127-0.054,1.927,3.921,4.021,8.879C312.448,266.351,314.042,270.413,313.914,270.467z"/>
							</g>
						</g>
						<g>
							<g>
								<path style="fill:#455A64;" d="M170.957,238.765c-0.077,0.042-0.855-1.389-2.327-3.557c-1.467-2.168-3.697-5.034-6.561-7.82
									c-2.871-2.78-5.803-4.923-8.014-6.325c-2.211-1.406-3.664-2.141-3.625-2.219c0.015-0.031,0.391,0.127,1.059,0.44
									c0.671,0.306,1.615,0.807,2.752,1.477c2.275,1.335,5.275,3.457,8.178,6.267c2.894,2.816,5.105,5.751,6.507,7.985
									c0.704,1.117,1.233,2.045,1.559,2.707C170.818,238.378,170.987,238.749,170.957,238.765z"/>
							</g>
						</g>
					</g>
				</g>
			</g>
			<g>
				<g>
					<g>
						<path style="fill:#455A64;" d="M210.247,215.12c-0.023,0.001-0.065-0.393-0.01-1.03c0.054-0.635,0.226-1.513,0.609-2.413
							c0.505-1.231,1.264-2.13,1.684-2.538l0.056-0.054l0.028,0.067c0.116,0.277,0.17,0.431,0.154,0.439
							c-0.017,0.008-0.103-0.132-0.246-0.395l0.084,0.013c-0.37,0.447-1.074,1.349-1.567,2.549
							C210.279,213.527,210.317,215.13,210.247,215.12z"/>
					</g>
				</g>
				<g>
					<g>
						<path style="fill:#455A64;" d="M223.486,221.981c-0.023,0.005-0.133-0.371-0.205-0.997c-0.074-0.625-0.09-1.505,0.057-2.459
							c0.15-0.954,0.432-1.787,0.692-2.361c0.26-0.575,0.478-0.9,0.499-0.888c0.065,0.027-0.703,1.399-0.985,3.281
							C223.242,220.434,223.556,221.975,223.486,221.981z"/>
					</g>
				</g>
				<g>
					<g>
						<path style="fill:#455A64;" d="M237.92,220.841c-0.068,0,0.033-1.28-0.385-2.776c-0.402-1.501-1.141-2.551-1.082-2.585
							c0.02-0.014,0.231,0.228,0.498,0.671c0.267,0.442,0.576,1.095,0.786,1.859c0.208,0.764,0.275,1.483,0.27,2
							C238.003,220.528,237.945,220.844,237.92,220.841z"/>
					</g>
				</g>
				<g>
					<g>
						<path style="fill:#455A64;" d="M250.538,215.312c-0.063,0.027-0.485-1.257-1.499-2.541c-1.001-1.295-2.144-2.015-2.103-2.07
							c0.013-0.021,0.315,0.13,0.752,0.454c0.438,0.322,1.001,0.832,1.514,1.488c0.512,0.657,0.87,1.327,1.077,1.829
							C250.487,214.975,250.561,215.304,250.538,215.312z"/>
					</g>
				</g>
				<g>
					<g>
						<path style="fill:#455A64;" d="M259.229,206.742c-0.06,0.038-0.314-1.534-1.726-2.725c-1.385-1.223-2.978-1.245-2.948-1.31
							c0.001-0.014,0.094-0.02,0.264-0.018c0.17-0.002,0.416,0.028,0.714,0.093c0.595,0.127,1.395,0.465,2.107,1.077
							c0.709,0.615,1.161,1.357,1.373,1.927c0.108,0.285,0.173,0.524,0.196,0.692C259.235,206.646,259.243,206.739,259.229,206.742z
							"/>
					</g>
				</g>
				<g>
					<g>
						<path style="fill:#455A64;" d="M263.877,190.908c-0.034,0.061-1.001-0.973-2.631-1.257c-1.625-0.317-2.896,0.304-2.907,0.235
							c-0.051-0.029,1.242-0.768,2.944-0.44C262.991,189.748,263.935,190.9,263.877,190.908z"/>
					</g>
				</g>
				<g>
					<g>
						<path style="fill:#455A64;" d="M201.569,204.451c-0.022-0.005,0.018-0.343,0.21-0.856c0.19-0.512,0.558-1.189,1.126-1.808
							c0.57-0.618,1.214-1.042,1.708-1.273c0.495-0.234,0.829-0.303,0.835-0.281c0.034,0.061-1.287,0.476-2.39,1.696
							C201.936,203.129,201.633,204.48,201.569,204.451z"/>
					</g>
				</g>
				<g>
					<g>
						<path style="fill:#455A64;" d="M198.409,193.913c-0.02-0.012,0.14-0.34,0.497-0.808c0.355-0.467,0.928-1.058,1.674-1.564
							c0.747-0.504,1.51-0.815,2.075-0.971c0.567-0.158,0.931-0.183,0.934-0.161c0.022,0.067-1.433,0.303-2.893,1.304
							C199.225,192.695,198.463,193.958,198.409,193.913z"/>
					</g>
				</g>
			</g>
			<g>
				<g>
					<path style="fill:#263238;" d="M173.553,255.366c-0.007,0.014-0.046-0.053-0.067,0.009c-0.031,0.06-0.057,0.178-0.082,0.329
						c-0.052,0.303-0.107,0.757-0.165,1.343c-0.116,1.173-0.249,2.875-0.392,4.981c-0.286,4.211-0.617,10.035-0.93,16.469
						c-0.313,6.436-0.545,12.265-0.688,16.485c-0.067,2.047-0.123,3.734-0.164,4.997c-0.022,0.539-0.041,0.987-0.056,1.359
						c-0.018,0.311-0.035,0.474-0.053,0.474c-0.018,0-0.035-0.163-0.052-0.474c-0.011-0.372-0.025-0.821-0.042-1.361
						c-0.022-1.182-0.027-2.892-0.001-5.004c0.049-4.225,0.222-10.061,0.536-16.502c0.313-6.439,0.702-12.263,1.083-16.473
						c0.19-2.105,0.38-3.806,0.558-4.977c0.089-0.585,0.177-1.038,0.264-1.342c0.045-0.152,0.083-0.266,0.143-0.338
						C173.543,255.253,173.566,255.389,173.553,255.366z"/>
				</g>
			</g>
		</g>
		<g>
			<g>
				<g>
					<g>
						<path style="fill:#263238;" d="M283.727,53.385c-8.342-2.55-17.035,4.915-25.595,3.238c-5.198-1.018-9.123-5.171-13.747-7.754
							c-6.915-3.863-16.694-4.486-23.756-0.901c-7.062,3.585-11.614,7.415-12.577,15.277c-6.428-3.689-17.152,4.403-20.805,12.21
							c-3.653,7.807-2.736,15.879-0.662,24.246c3.57,14.405,10.002,28.095,18.812,40.039c0.78,1.058,2.026,2.228,3.215,1.669
							c0.824-0.387,1.092-1.408,1.236-2.306c1.229-7.652,0.259-15.46-0.403-23.181c-0.662-7.722-0.987-15.682,1.451-23.038
							c2.438-7.356,8.193-14.066,15.796-15.568c5.616-1.109,11.449,0.719,16.441,3.52c4.992,2.802,9.379,6.551,14.132,9.741
							c4.754,3.189,10.09,5.878,15.809,6.127c5.719,0.249,11.853-2.448,14.29-7.628c2.437-5.18-0.297-12.539-5.896-13.727
							c5.141-0.473,9.634-4.917,10.163-10.053C292.158,60.16,288.664,54.894,283.727,53.385z"/>
					</g>
				</g>
				<g>
					<g>
						<g>
							<g>
								<g>
									<g>
										<g>
											<g>
												<g>
													<g>
														<g>
															<g>
																<g>
																	<g>
																		<g>
																			<g>
																				<path style="fill:#FFBE9D;" d="M258,187.533l-0.808-16.559c0,0,21.823-4.182,21.325-26.13
																					c-0.241-10.599-2.512-32.38-4.797-52.072c-2.457-21.178-20.761-36.919-42.069-36.172l-2.117,0.074
																					c-22.778,2.134-33.691,22.671-30.928,45.382l5.253,88.406c0.884,14.878,13.613,26.253,28.497,25.465h0
																					C247.263,215.137,258.727,202.444,258,187.533z"/>
																			</g>
																		</g>
																	</g>
																</g>
															</g>
														</g>
													</g>
												</g>
											</g>
										</g>
										<g>
											<g>
												<g>
													<g>
														<g>
															<g>
																<g>
																	<g>
																		<g>
																			<g>
																				<path style="fill:#EB996E;" d="M257.217,170.959c0,0-13.826,1.614-28.887-7.125c0,0,7.314,15.551,29.137,12.808
																					L257.217,170.959z"/>
																			</g>
																		</g>
																	</g>
																</g>
															</g>
														</g>
													</g>
												</g>
											</g>
										</g>
									</g>
								</g>
							</g>
							<g>
								<g>
									<g>
										<g>
											<g>
												<g>
													<g>
														<g>
															<g>
																<g>
																	<g>
																		<g>
																			<g>
																				<g>
																					<g>
																						<g>
																							<path style="fill:#263238;" d="M266.326,107.647c0.117,1.652-1.186,3.113-2.91,3.267
																								c-1.72,0.152-3.212-1.059-3.329-2.712c-0.116-1.652,1.186-3.116,2.907-3.269
																								C264.717,104.78,266.209,105.995,266.326,107.647z"/>
																						</g>
																					</g>
																				</g>
																			</g>
																		</g>
																	</g>
																</g>
															</g>
														</g>
													</g>
													<g>
														<g>
															<g>
																<g>
																	<g>
																		<g>
																			<g>
																				<g>
																					<g>
																						<g>
																							<g>
																								<path style="fill:#263238;" d="M269.378,103.661c-0.374,0.422-2.809-1.252-6.18-1.124
																									c-3.369,0.078-5.782,1.9-6.162,1.5c-0.186-0.177,0.183-0.928,1.233-1.75
																									c1.033-0.818,2.815-1.641,4.916-1.706c2.1-0.062,3.894,0.649,4.937,1.405
																									C269.186,102.745,269.564,103.471,269.378,103.661z"/>
																							</g>
																						</g>
																					</g>
																				</g>
																			</g>
																		</g>
																	</g>
																</g>
															</g>
														</g>
													</g>
												</g>
												<g>
													<g>
														<g>
															<g>
																<g>
																	<g>
																		<g>
																			<g>
																				<g>
																					<g>
																						<g>
																							<path style="fill:#263238;" d="M233.208,109.952c0.117,1.653-1.187,3.114-2.91,3.267
																								c-1.72,0.153-3.212-1.058-3.329-2.711c-0.116-1.652,1.187-3.115,2.907-3.269
																								C231.6,107.085,233.091,108.3,233.208,109.952z"/>
																						</g>
																					</g>
																				</g>
																			</g>
																		</g>
																	</g>
																</g>
															</g>
														</g>
													</g>
													<g>
														<g>
															<g>
																<g>
																	<g>
																		<g>
																			<g>
																				<g>
																					<g>
																						<g>
																							<g>
																								<path style="fill:#263238;" d="M236.262,105.452c-0.375,0.422-2.813-1.251-6.182-1.124
																									c-3.368,0.079-5.782,1.9-6.163,1.5c-0.186-0.177,0.18-0.927,1.234-1.75
																									c1.033-0.819,2.815-1.641,4.915-1.707c2.1-0.062,3.894,0.649,4.938,1.405
																									C236.066,104.536,236.445,105.263,236.262,105.452z"/>
																							</g>
																						</g>
																					</g>
																				</g>
																			</g>
																		</g>
																	</g>
																</g>
															</g>
														</g>
													</g>
												</g>
												<g>
													<g>
														<g>
															<g>
																<g>
																	<g>
																		<g>
																			<g>
																				<g>
																					<g>
																						<g>
																							<path style="fill:#263238;" d="M249.374,130.026c-0.023-0.191,2.061-0.627,5.441-1.18
																								c0.858-0.119,1.667-0.319,1.791-0.911c0.181-0.629-0.212-1.544-0.664-2.532
																								c-0.883-2.055-1.806-4.209-2.776-6.466c-3.863-9.21-6.691-16.794-6.32-16.947
																								c0.373-0.152,3.806,7.189,7.668,16.398c0.932,2.272,1.823,4.437,2.67,6.509
																								c0.36,0.967,0.959,2.057,0.565,3.363c-0.209,0.652-0.825,1.141-1.371,1.308
																								c-0.546,0.188-1.03,0.214-1.455,0.255C251.513,130.127,249.394,130.217,249.374,130.026z"/>
																						</g>
																					</g>
																				</g>
																			</g>
																		</g>
																	</g>
																</g>
															</g>
														</g>
													</g>
												</g>
												<g>
													<g>
														<g>
															<g>
																<g>
																	<g>
																		<g>
																			<g>
																				<g>
																					<g>
																						<g>
																							<path style="fill:#263238;" d="M239.534,132.706c0.547-0.051,0.682,3.608,3.906,6.096
																								c3.218,2.496,7.105,1.949,7.152,2.459c0.059,0.228-0.844,0.741-2.489,0.844
																								c-1.613,0.112-3.99-0.324-5.962-1.846c-1.966-1.526-2.863-3.622-3.04-5.119
																								C238.906,133.614,239.282,132.693,239.534,132.706z"/>
																						</g>
																					</g>
																				</g>
																			</g>
																		</g>
																	</g>
																</g>
															</g>
														</g>
													</g>
												</g>
											</g>
										</g>
									</g>
									<g>
										<g>
											<g>
												<g>
													<g>
														<g>
															<g>
																<g>
																	<g>
																		<g>
																			<path style="fill:#263238;" d="M235.991,88.166c-0.301,0.928-3.682,0.612-7.62,1.227
																				c-3.952,0.536-7.1,1.806-7.654,1.003c-0.248-0.386,0.278-1.267,1.537-2.2c1.247-0.931,3.257-1.845,5.622-2.192
																				c2.365-0.342,4.553-0.042,6.014,0.494C235.362,87.031,236.119,87.726,235.991,88.166z"/>
																		</g>
																	</g>
																</g>
															</g>
														</g>
													</g>
												</g>
											</g>
										</g>
									</g>
									<g>
										<g>
											<g>
												<g>
													<g>
														<g>
															<g>
																<g>
																	<g>
																		<g>
																			<path style="fill:#263238;" d="M267.797,93.947c-0.566,0.787-2.917,0.073-5.711,0.134
																				c-2.796-0.037-5.139,0.695-5.712-0.087c-0.252-0.38,0.093-1.16,1.101-1.922c0.993-0.758,2.676-1.408,4.596-1.417
																				c1.921-0.006,3.608,0.629,4.608,1.38C267.694,92.787,268.046,93.565,267.797,93.947z"/>
																		</g>
																	</g>
																</g>
															</g>
														</g>
													</g>
												</g>
											</g>
										</g>
									</g>
								</g>
							</g>
						</g>
					</g>
				</g>
				<g>
					<g>
						<g>
							<g>
								<g>
									<g>
										<g>
											<g>
												<g>
													<g>
														<g>
															<path style="fill:#FFBE9D;" d="M200.967,118.238c-0.38-0.149-15.23-3.93-14.225,11.052
																c1.005,14.982,15.839,10.882,15.836,10.451C202.575,139.31,200.967,118.238,200.967,118.238z"/>
														</g>
													</g>
												</g>
											</g>
										</g>
									</g>
								</g>
							</g>
						</g>
					</g>
					<g>
						<g>
							<g>
								<g>
									<g>
										<g>
											<g>
												<g>
													<g>
														<g>
															<g>
																<path style="fill:#EB996E;" d="M197.621,134.372c-0.069-0.043-0.249,0.2-0.677,0.432
																	c-0.417,0.225-1.147,0.411-1.948,0.171c-1.622-0.475-3.123-2.898-3.377-5.593c-0.13-1.361,0.069-2.679,0.48-3.786
																	c0.384-1.127,1.041-1.94,1.829-2.135c0.781-0.236,1.377,0.203,1.588,0.612c0.229,0.405,0.154,0.71,0.235,0.731
																	c0.044,0.035,0.305-0.273,0.142-0.883c-0.082-0.293-0.281-0.635-0.652-0.899c-0.379-0.268-0.918-0.382-1.469-0.285
																	c-1.15,0.157-2.119,1.29-2.57,2.506c-0.515,1.225-0.771,2.708-0.625,4.236c0.299,3.013,2.033,5.734,4.241,6.214
																	c1.072,0.205,1.93-0.172,2.361-0.556C197.618,134.736,197.675,134.396,197.621,134.372z"/>
															</g>
														</g>
													</g>
												</g>
											</g>
										</g>
									</g>
								</g>
							</g>
						</g>
					</g>
				</g>
				<g>
					<g>
						<g>
							<path style="fill:#263238;" d="M278.199,88.01c-9.573,2.911-20.516,0.847-28.37-5.354
								c-5.495-4.338-9.841-10.698-16.601-12.522c-4.551-1.228-9.518-0.08-13.562,2.342c-4.044,2.422-7.262,6.019-9.997,9.857
								c4.63,11.001,2.219,23.546-0.262,35.221c-0.274,1.29-0.607,2.682-1.624,3.522c-1.727,1.427-4.42,0.453-6.024-1.11
								c-2.567-2.504-3.656-6.132-4.412-9.637c-1.722-7.985-2.217-16.306-0.708-24.334c1.509-8.028,5.096-15.759,10.8-21.607
								c7.128-7.308,17.336-11.327,27.543-11.528c10.206-0.2,20.341,3.279,28.698,9.14c3.877,2.719,7.478,6.045,9.583,10.288"/>
						</g>
					</g>
				</g>
			</g>
			<g>
				<g>
					<g>
						<path style="fill:#455A64;" d="M290.211,58.45c0,0,0.105,0.457-0.089,1.305c-0.188,0.834-0.733,2.071-1.987,3.166
							c-1.243,1.105-3.215,1.883-5.54,2.066c-1.16,0.094-2.411,0.102-3.729-0.099c-1.307-0.212-2.711-0.661-3.885-1.637
							c-1.141-0.953-2.088-2.445-2.022-4.169c0.055-1.753,1.407-3.277,3.051-3.94c0.827-0.345,1.75-0.515,2.686-0.439
							c0.935,0.078,1.87,0.466,2.616,1.066c1.538,1.198,2.349,3.18,2.418,5.166c0.085,2.016-0.762,4.064-2.172,5.586
							c-1.408,1.54-3.287,2.638-5.327,3.274c-4.119,1.29-8.722,0.661-12.865-0.944c-4.191-1.588-7.871-3.974-11.326-6.291
							c-3.462-2.311-6.816-4.526-10.285-6.07c-3.449-1.565-7.043-2.347-10.394-2.146c-3.353,0.198-6.388,1.251-8.893,2.619
							c-5.049,2.796-7.94,6.703-9.634,9.393c-0.855,1.368-1.42,2.49-1.794,3.254c-0.375,0.764-0.561,1.172-0.589,1.161
							c-0.012-0.005,0.021-0.113,0.095-0.319c0.077-0.205,0.185-0.513,0.357-0.904c0.331-0.787,0.858-1.937,1.682-3.341
							c1.635-2.759,4.493-6.78,9.627-9.704c2.547-1.429,5.648-2.542,9.109-2.774c3.462-0.237,7.184,0.554,10.71,2.135
							c3.548,1.559,6.943,3.788,10.411,6.09c3.458,2.308,7.089,4.65,11.187,6.202c4.051,1.569,8.467,2.16,12.385,0.943
							c1.934-0.596,3.708-1.634,5.017-3.056c1.315-1.419,2.077-3.251,2.012-5.089c-0.053-1.816-0.791-3.615-2.139-4.672
							c-1.313-1.119-3.181-1.197-4.66-0.569c-1.488,0.591-2.657,1.917-2.713,3.397c-0.076,1.483,0.747,2.852,1.789,3.74
							c1.057,0.902,2.374,1.353,3.623,1.572c1.259,0.211,2.488,0.224,3.619,0.152c2.265-0.14,4.168-0.851,5.385-1.873
							c1.232-1.017,1.801-2.185,2.029-2.983C290.213,58.907,290.167,58.447,290.211,58.45z"/>
					</g>
				</g>
			</g>
			<g>
				<g>
					<g>
						<path style="fill:#455A64;" d="M185.027,88.467c0.054-0.158,1.71,0.796,4.623,1.029c1.445,0.096,3.191-0.072,5.007-0.699
							c1.818-0.6,3.718-1.627,5.529-2.904c3.618-2.622,5.576-6.392,6.369-9.17c0.818-2.818,0.688-4.687,0.834-4.681
							c0.045-0.002,0.112,0.457,0.124,1.296c0.003,0.837-0.093,2.058-0.45,3.523c-0.684,2.897-2.645,6.883-6.439,9.634
							c-1.884,1.328-3.835,2.358-5.755,2.954c-1.909,0.618-3.762,0.74-5.265,0.571c-1.508-0.178-2.676-0.576-3.44-0.919
							C185.399,88.757,185.007,88.507,185.027,88.467z"/>
					</g>
				</g>
			</g>
			<g>
				<g>
					<g>
						<path style="fill:#455A64;" d="M186.063,99.299c0.016-0.137,1.78,0.191,4.604-0.067c2.799-0.24,6.704-1.247,10.217-3.748
							c3.512-2.506,5.739-5.868,6.879-8.436c1.166-2.585,1.432-4.359,1.566-4.329c0.045,0.007,0.024,0.455-0.116,1.251
							c-0.138,0.796-0.432,1.935-0.967,3.285c-1.043,2.686-3.279,6.23-6.931,8.835c-3.654,2.601-7.733,3.558-10.612,3.667
							c-1.45,0.065-2.623-0.029-3.421-0.159C186.485,99.471,186.055,99.344,186.063,99.299z"/>
					</g>
				</g>
			</g>
			<g>
				<g>
					<g>
						<path style="fill:#EB996E;" d="M225.562,120.179c-0.2,0.047-0.404-0.092-0.456-0.31c-0.051-0.219,0.069-0.434,0.268-0.482
							c0.2-0.047,0.404,0.092,0.456,0.311C225.882,119.916,225.762,120.132,225.562,120.179z"/>
					</g>
				</g>
			</g>
			<g>
				<g>
					<g>
						<path style="fill:#EB996E;" d="M231.952,118.492c-0.2,0.047-0.41-0.118-0.469-0.368c-0.059-0.251,0.055-0.492,0.255-0.54
							c0.2-0.047,0.41,0.118,0.469,0.368C232.266,118.203,232.152,118.444,231.952,118.492z"/>
					</g>
				</g>
			</g>
			<g>
				<g>
					<g>
						<path style="fill:#EB996E;" d="M236.286,118.232c-0.203,0.033-0.41-0.209-0.464-0.541c-0.054-0.332,0.067-0.627,0.27-0.66
							c0.203-0.033,0.41,0.21,0.464,0.541C236.609,117.904,236.488,118.2,236.286,118.232z"/>
					</g>
				</g>
			</g>
			<g>
				<g>
					<g>
						<path style="fill:#EB996E;" d="M228.871,124.111c-0.205,0.007-0.376-0.093-0.38-0.225c-0.005-0.131,0.158-0.244,0.363-0.251
							c0.205-0.007,0.376,0.093,0.38,0.225C229.238,123.991,229.076,124.104,228.871,124.111z"/>
					</g>
				</g>
			</g>
			<g>
				<g>
					<g>
						<path style="fill:#EB996E;" d="M234.73,122.533c-0.204,0.025-0.392-0.143-0.421-0.374c-0.028-0.232,0.114-0.44,0.318-0.465
							c0.204-0.025,0.392,0.143,0.42,0.374C235.076,122.3,234.934,122.508,234.73,122.533z"/>
					</g>
				</g>
			</g>
			<g>
				<g>
					<g>
						<path style="fill:#EB996E;" d="M265.345,117.784c-0.2,0.047-0.405-0.097-0.459-0.323c-0.053-0.226,0.065-0.447,0.265-0.494
							c0.2-0.047,0.405,0.097,0.459,0.323C265.664,117.516,265.545,117.737,265.345,117.784z"/>
					</g>
				</g>
			</g>
			<g>
				<g>
					<g>
						<path style="fill:#EB996E;" d="M269.721,117.229c-0.204,0.027-0.396-0.159-0.431-0.415c-0.034-0.257,0.103-0.487,0.307-0.514
							c0.204-0.027,0.397,0.159,0.431,0.416C270.061,116.971,269.924,117.202,269.721,117.229z"/>
					</g>
				</g>
			</g>
			<g>
				<g>
					<g>
						<path style="fill:#EB996E;" d="M261.472,118.029c-0.2,0.047-0.396-0.057-0.437-0.232c-0.041-0.175,0.087-0.356,0.287-0.403
							c0.2-0.047,0.396,0.057,0.437,0.232C261.8,117.801,261.672,117.982,261.472,118.029z"/>
					</g>
				</g>
			</g>
			<g>
				<g>
					<g>
						<path style="fill:#EB996E;" d="M264.88,122.305c-0.185,0.09-0.418-0.011-0.522-0.225c-0.103-0.214-0.038-0.46,0.147-0.549
							c0.185-0.089,0.419,0.011,0.522,0.225C265.131,121.97,265.065,122.216,264.88,122.305z"/>
					</g>
				</g>
			</g>
			<g>
				<g>
					<g>
						<path style="fill:#EB996E;" d="M268.603,121.424c-0.2-0.047-0.33-0.222-0.29-0.39c0.04-0.168,0.234-0.266,0.434-0.219
							c0.2,0.047,0.33,0.222,0.29,0.39C268.998,121.373,268.803,121.471,268.603,121.424z"/>
					</g>
				</g>
			</g>
		</g>
		<g>
			<g>
				<g>
					<path style="fill:#E8505B;" d="M261.178,370.637l-0.236-22.227c0,0-14.835-20.549-8.981-42.841c0,0,9.672-6.802,35.598-2.814
						c0,0,32.551-31.711,76.182-23.648c43.631,8.063,47.689,46.085,48.104,56.434c0.415,10.349,0.323,30.448-14.694,50.097
						l-1.011,19.5c0,0-3.576,7.346-13.935,6.847c-10.359-0.499-9.766-2.028-9.766-2.028s-12.983,10.491-13.563,13.238
						c-0.58,2.747-2.601,13.122-2.601,13.122s-4.503,6.138-14.24,6.851c-4.596,0.336-8.394-0.891-11.123-2.28
						c-2.624-1.336-4.623-3.655-5.508-6.463c-1.231-3.904-4.396-10.482-12.235-14.094l-6.718-1.756c0,0-2.715,2.465-12.144,3.479
						c-9.429,1.014-9.465-2.336-9.465-2.336s-14.669,3.392-25.696-10.994C250.437,397.36,245.714,376.891,261.178,370.637z"/>
				</g>
				<g>
					<g>
						<path style="fill:#263238;" d="M351.625,371.921c-0.014-0.011,0.152-0.247,0.481-0.685c0.33-0.437,0.823-1.075,1.433-1.916
							c1.228-1.674,2.956-4.137,4.852-7.327c1.884-3.194,3.926-7.125,5.737-11.682c0.909-2.276,1.758-4.707,2.514-7.264
							c0.734-2.53,1.376-5.308,0.716-8.015c-0.67-2.707-2.662-4.803-4.8-6.306c-2.165-1.518-4.519-2.6-6.778-3.521
							c-4.545-1.823-8.914-2.689-12.596-3.03c-3.69-0.357-6.701-0.188-8.764,0.002c-1.033,0.098-1.833,0.197-2.374,0.278
							c-0.542,0.071-0.829,0.1-0.832,0.083s0.277-0.081,0.815-0.186c0.537-0.116,1.335-0.247,2.369-0.376
							c2.065-0.252,5.094-0.479,8.818-0.167c3.716,0.297,8.137,1.132,12.741,2.951c2.289,0.92,4.668,1.999,6.896,3.551
							c2.192,1.533,4.296,3.715,5.011,6.597c0.697,2.877,0.011,5.734-0.732,8.284c-0.768,2.572-1.632,5.014-2.558,7.299
							c-1.846,4.574-3.933,8.508-5.866,11.693c-1.945,3.18-3.726,5.619-5.006,7.26c-0.636,0.825-1.155,1.444-1.513,1.86
							C351.832,371.719,351.639,371.932,351.625,371.921z"/>
					</g>
				</g>
				<g>
					<g>
						<path style="fill:#263238;" d="M290.617,303.717c0.014-0.004,0.08,0.17,0.154,0.517c0.073,0.346,0.126,0.873,0.067,1.548
							c-0.112,1.339-0.814,3.289-2.493,5.049c-1.637,1.801-4.117,3.269-6.533,5.249c-2.437,1.969-4.962,4.335-7.31,7.087
							c-4.73,5.495-7.849,11.354-9.623,15.745c-0.893,2.199-1.491,4.028-1.884,5.298c-0.177,0.591-0.322,1.076-0.439,1.468
							c-0.106,0.334-0.17,0.508-0.188,0.504c-0.018-0.004,0.013-0.186,0.086-0.53c0.092-0.4,0.207-0.895,0.346-1.497
							c0.335-1.291,0.882-3.147,1.737-5.379c1.697-4.454,4.795-10.401,9.57-15.948c2.37-2.778,4.93-5.156,7.405-7.122
							c2.469-1.985,4.946-3.41,6.566-5.128c1.661-1.674,2.388-3.529,2.559-4.819C290.809,304.451,290.555,303.724,290.617,303.717z"
							/>
					</g>
				</g>
				<g style="opacity:0.5;">
					<path d="M308.056,306.441l13.273,3.389c0,0,19.434-21.842,40.775-27.363l-7.994-1.885
						C354.11,280.582,328.333,285.106,308.056,306.441z"/>
				</g>
				<g>
					<path style="fill:#E8505B;" d="M357.772,281.425c-17.339,3.87-33.45,13.068-45.596,26.032l-4.12-1.016
						c0,0,18.824-20.655,46.054-25.859L357.772,281.425z"/>
				</g>
				<g style="opacity:0.7;">
					<g>
						<path d="M357.772,281.425c-17.339,3.87-33.45,13.068-45.596,26.032l-4.12-1.016c0,0,18.824-20.655,46.054-25.859
							L357.772,281.425z"/>
					</g>
				</g>
				<g>
					<path style="fill:#E8505B;" d="M254.767,375.174c7.358-10.524,25.789-7.309,34.2,2.158c8.289,9.328,12.146,22.482,6.672,33.696
						c-2.337,4.788-6.819,9.015-12.146,8.899c5.469-5.892,7.409-14.391,5.697-22.246c-1.713-7.855-6.656-14.776-12.916-19.821
						c-3.175-2.559-6.741-5.37-10.799-5.773C261.417,371.683,258.157,371.568,254.767,375.174"/>
				</g>
				<g style="opacity:0.3;">
					<g>
						<path d="M254.767,375.174c7.358-10.524,25.789-7.309,34.2,2.158c8.289,9.328,12.146,22.482,6.672,33.696
							c-2.337,4.788-6.819,9.015-12.146,8.899c5.469-5.892,7.409-14.391,5.697-22.246c-1.713-7.855-6.656-14.776-12.916-19.821
							c-3.175-2.559-6.741-5.37-10.799-5.773C261.417,371.683,258.157,371.568,254.767,375.174"/>
					</g>
				</g>
				<g style="opacity:0.3;">
					<g>
						<path d="M352.358,371.302c-0.135,2.225,1.898,4.2,4.112,4.458c2.215,0.258,4.416-0.909,5.889-2.582
							c1.473-1.673,2.325-3.797,3.002-5.922c2.296-7.205,3.485-17.962,2.282-25.427c-3.181,9.673-8.864,21.73-15.453,29.493"/>
					</g>
				</g>
				<g style="opacity:0.3;">
					<g>
						<path d="M359.329,338.046c-1.431-4.231-5.809-6.691-10.027-8.16c-4.292-1.495-8.796-2.38-13.335-2.62
							c-1.43-0.076-2.902-0.081-4.245,0.415c-1.343,0.497-2.547,1.594-2.795,3.004c-0.201,1.141,0.422,2.404,1.422,2.9
							c7.23,8.353,12.674,18.244,15.87,28.817c0.621,2.055,3.224,2.605,4.639,0.992c3.402-3.876,5.362-9.106,7.12-14.07
							C359.268,345.685,360.566,341.705,359.329,338.046z"/>
					</g>
				</g>
				<g style="opacity:0.3;">
					<g>
						<path d="M263.717,340c-4.534-7.01-6.912-15.395-6.732-23.741c0.038-1.765,0.254-3.685,1.487-4.949
							c1.492-1.531,3.906-1.559,6.04-1.425c5.882,0.371,11.736,1.195,17.492,2.462c0.45,0.099,0.963,0.252,1.14,0.677
							c0.267,0.642,0.202,1.648-0.392,2.012c-8.954,5.491-15.301,15.591-18.685,25.474"/>
					</g>
				</g>
				<g>
					<g>
						<path style="fill:#FAFAFA;" d="M252.569,306.362c0.036,0.005,0.01,0.543-0.067,1.51c-0.086,0.966-0.172,2.368-0.235,4.099
							c-0.124,3.46-0.015,8.263,0.879,13.47c0.46,2.6,1.07,5.042,1.725,7.234c0.677,2.185,1.393,4.12,2.071,5.713
							c0.675,1.594,1.263,2.869,1.702,3.733c0.428,0.87,0.651,1.361,0.62,1.379c-0.031,0.018-0.314-0.44-0.799-1.284
							c-0.496-0.838-1.137-2.096-1.86-3.681c-0.726-1.585-1.484-3.521-2.192-5.717c-0.686-2.202-1.317-4.664-1.78-7.287
							c-0.902-5.255-0.953-10.103-0.734-13.577c0.11-1.738,0.252-3.141,0.401-4.104
							C252.439,306.887,252.533,306.357,252.569,306.362z"/>
					</g>
				</g>
				<g>
					<g>
						<path style="fill:#FAFAFA;" d="M353.326,279.861c0.004,0.017-0.174,0.082-0.516,0.188c-0.4,0.117-0.896,0.262-1.503,0.438
							c-0.655,0.179-1.454,0.405-2.372,0.703c-0.919,0.292-1.975,0.592-3.117,1.004c-2.303,0.764-5.004,1.795-7.952,3.054
							c-2.936,1.289-6.112,2.823-9.345,4.622c-3.223,1.82-6.189,3.731-8.82,5.564c-2.613,1.859-4.901,3.626-6.754,5.192
							c-0.947,0.759-1.754,1.504-2.483,2.136c-0.733,0.628-1.342,1.192-1.837,1.658c-0.467,0.425-0.85,0.773-1.158,1.053
							c-0.269,0.237-0.416,0.355-0.429,0.342c-0.013-0.013,0.11-0.156,0.355-0.417c0.29-0.299,0.651-0.671,1.091-1.125
							c0.474-0.489,1.065-1.076,1.781-1.726c0.712-0.654,1.504-1.421,2.44-2.201c1.83-1.608,4.104-3.414,6.715-5.303
							c2.629-1.864,5.603-3.796,8.843-5.627c3.25-1.809,6.45-3.339,9.411-4.609c2.973-1.241,5.7-2.241,8.026-2.963
							c1.154-0.392,2.221-0.668,3.151-0.934c0.928-0.272,1.738-0.469,2.402-0.619c0.617-0.139,1.122-0.253,1.529-0.344
							C353.135,279.873,353.322,279.843,353.326,279.861z"/>
					</g>
				</g>
				<g>
					<g>
						<path style="fill:#FAFAFA;" d="M364.987,332.702c-0.077,0.086-1.589-1.448-4.488-3.298c-1.432-0.949-3.259-1.884-5.336-2.79
							c-2.088-0.89-4.477-1.639-7.03-2.218c-5.124-1.152-9.929-1.13-13.342-0.802c-3.423,0.348-5.492,0.92-5.517,0.811
							c-0.009-0.035,0.503-0.186,1.442-0.429c0.933-0.264,2.316-0.518,4.035-0.748c3.434-0.425,8.304-0.507,13.494,0.66
							c2.585,0.586,5.002,1.359,7.106,2.285c2.094,0.943,3.926,1.924,5.349,2.923c0.356,0.243,0.697,0.476,1.023,0.698
							c0.304,0.24,0.592,0.469,0.866,0.686c0.545,0.422,1.002,0.801,1.343,1.147C364.637,332.296,365.012,332.676,364.987,332.702z"
							/>
					</g>
				</g>
				<g>
					<g>
						<path style="fill:#FAFAFA;" d="M275.547,418.312c-0.006,0.017-0.17-0.028-0.478-0.128c-0.305-0.108-0.766-0.241-1.332-0.481
							c-1.147-0.444-2.772-1.192-4.666-2.323c-3.777-2.226-8.595-6.283-12.015-12.137c-3.421-5.857-4.586-12.047-4.669-16.431
							c-0.054-2.205,0.092-3.987,0.269-5.205c0.07-0.611,0.18-1.078,0.236-1.396c0.064-0.317,0.105-0.482,0.123-0.479
							c0.043,0.007-0.046,0.68-0.158,1.898c-0.115,1.217-0.203,2.988-0.102,5.168c0.176,4.336,1.384,10.417,4.751,16.182
							c3.366,5.763,8.068,9.802,11.758,12.086c1.849,1.159,3.435,1.952,4.552,2.45C274.931,418.017,275.562,418.271,275.547,418.312
							z"/>
					</g>
				</g>
				<g>
					<g style="opacity:0.2;">
						<g>
							<path d="M278.169,395.205c-1.53-0.583-3.367-0.043-4.482,1.157c-1.115,1.2-1.53,2.955-1.27,4.572
								c0.261,1.617,0.747,3.012,1.911,4.164c0.796,0.787,2.188,1.54,3.304,1.61c1.545,0.096,2.957-1.014,3.709-2.366
								c0.884-1.589,1.04-3.566,0.415-5.274C281.132,397.359,279.87,395.85,278.169,395.205"/>
						</g>
					</g>
					<g>
						<path style="fill:#E8505B;" d="M276.624,395.019c-1.438,1.728-1.909,4.212-1.202,6.346c0.707,2.134,2.567,3.847,4.752,4.375
							c-0.741,0.718-2.237,1.216-3.367,0.893c-3-0.859-4.928-4.013-4.697-7.125c0.093-1.247,0.555-2.498,1.447-3.375
							C274.449,395.256,276.133,394.915,276.624,395.019"/>
					</g>
					<g style="opacity:0.4;">
						<g>
							<path d="M276.624,395.019c-1.438,1.728-1.909,4.212-1.202,6.346c0.707,2.134,2.567,3.847,4.752,4.375
								c-0.741,0.718-2.237,1.216-3.367,0.893c-3-0.859-4.928-4.013-4.697-7.125c0.093-1.247,0.555-2.498,1.447-3.375
								C274.449,395.256,276.133,394.915,276.624,395.019"/>
						</g>
					</g>
				</g>
				<g>
					<g style="opacity:0.2;">
						<g>
							<path d="M263.433,389.523c-1.476-0.563-3.248-0.041-4.323,1.116c-1.075,1.157-1.476,2.851-1.225,4.41
								c0.251,1.559,0.72,2.906,1.843,4.017c0.767,0.759,2.11,1.486,3.187,1.553c1.49,0.093,2.853-0.978,3.578-2.283
								c0.853-1.533,1.003-3.44,0.4-5.087C266.292,391.6,265.074,390.145,263.433,389.523"/>
						</g>
					</g>
					<g>
						<path style="fill:#E8505B;" d="M261.943,389.343c-1.387,1.667-1.841,4.063-1.16,6.122c0.682,2.059,2.476,3.711,4.584,4.22
							c-0.715,0.693-2.158,1.173-3.248,0.861c-2.894-0.829-4.754-3.871-4.531-6.873c0.089-1.203,0.535-2.41,1.396-3.256
							C259.845,389.572,261.47,389.243,261.943,389.343"/>
					</g>
					<g style="opacity:0.4;">
						<g>
							<path d="M261.943,389.343c-1.387,1.667-1.841,4.063-1.16,6.122c0.682,2.059,2.476,3.711,4.584,4.22
								c-0.715,0.693-2.158,1.173-3.248,0.861c-2.894-0.829-4.754-3.871-4.531-6.873c0.089-1.203,0.535-2.41,1.396-3.256
								C259.845,389.572,261.47,389.243,261.943,389.343"/>
						</g>
					</g>
				</g>
				<g>
					<g>
						<path style="fill:#263238;" d="M303.192,361.378C303.271,361.365,303.112,361.388,303.192,361.378L303.192,361.378z"/>
					</g>
					<g>
						<g>
							<path style="fill:#263238;" d="M301.371,361.951c0.044-0.029,0.099-0.039,0.144-0.066c0.023-0.011,0.044-0.026,0.067-0.037
								L301.371,361.951z"/>
						</g>
						<g>
							<path style="fill:#263238;" d="M308.928,365.125c-0.517-1.261-1.365-2.45-2.592-3.045c-0.787-0.382-1.925-0.76-3.056-0.711
								l-0.089,0.009c-0.553,0.035-1.163,0.206-1.677,0.507c-2.21,1.062-3.822,3.376-4.005,5.85
								c-0.232,3.14,1.748,6.267,4.604,7.592c0.956,0.443,2.042,0.704,3.068,0.465c1.04-0.242,1.906-0.972,2.57-1.808
								C309.694,371.537,310.113,368.014,308.928,365.125z"/>
						</g>
					</g>
				</g>
				<g>
					<g>
						<path style="fill:#263238;" d="M272.04,351.772C272.109,351.76,271.971,351.781,272.04,351.772L272.04,351.772z"/>
					</g>
					<g>
						<g>
							<path style="fill:#263238;" d="M270.463,352.268c0.038-0.025,0.085-0.034,0.125-0.057c0.02-0.009,0.038-0.023,0.058-0.032
								L270.463,352.268z"/>
						</g>
						<g>
							<path style="fill:#263238;" d="M277.009,355.017c-0.448-1.093-1.182-2.122-2.245-2.638c-0.681-0.331-1.667-0.658-2.647-0.615
								l-0.077,0.008c-0.479,0.031-1.007,0.178-1.453,0.439c-1.914,0.92-3.311,2.924-3.469,5.067
								c-0.201,2.72,1.514,5.428,3.988,6.576c0.828,0.384,1.769,0.61,2.657,0.403c0.901-0.21,1.651-0.842,2.226-1.566
								C277.672,360.572,278.035,357.52,277.009,355.017z"/>
						</g>
					</g>
				</g>
				<g>
					<g>
						<path style="fill:#263238;" d="M279.025,371.706c0.005-0.017,0.218,0.027,0.622,0.128c0.408,0.089,0.993,0.276,1.743,0.531
							c1.486,0.536,3.594,1.508,5.883,3.195c2.285,1.676,4.734,4.1,6.723,7.298c2,3.185,3.495,7.121,4.182,11.402
							c0.671,4.286,0.556,8.464-0.139,12.156c-0.691,3.695-2.197,6.879-4.147,8.982c-1.935,2.121-4.096,3.174-5.618,3.596
							c-1.538,0.438-2.433,0.331-2.433,0.331c-0.009-0.066,0.885-0.036,2.374-0.525c1.475-0.472,3.553-1.551,5.403-3.648
							c1.86-2.075,3.295-5.19,3.949-8.825c0.658-3.635,0.758-7.766,0.096-11.984c-0.677-4.217-2.133-8.088-4.075-11.232
							c-1.932-3.156-4.313-5.568-6.537-7.256c-2.227-1.699-4.283-2.711-5.734-3.3C279.858,371.974,279.011,371.759,279.025,371.706z
							"/>
					</g>
				</g>
				<g>
					<g>
						<path style="fill:#FAFAFA;" d="M269.452,359.876c-0.051,0.039-0.31-0.18-0.577-0.65c-0.267-0.466-0.507-1.198-0.511-2.03
							c-0.001-0.832,0.234-1.566,0.499-2.033c0.264-0.472,0.522-0.692,0.573-0.654c0.13,0.082-0.574,1.169-0.551,2.685
							C268.871,358.711,269.581,359.794,269.452,359.876z"/>
					</g>
				</g>
				<g>
					<g>
						<path style="fill:#FAFAFA;" d="M299.596,370.926c-0.053,0.033-0.304-0.226-0.522-0.758c-0.22-0.527-0.361-1.338-0.216-2.211
							c0.147-0.872,0.545-1.594,0.924-2.021c0.38-0.432,0.701-0.596,0.741-0.547c0.109,0.106-0.906,1.057-1.151,2.653
							C299.083,369.632,299.733,370.861,299.596,370.926z"/>
					</g>
				</g>
				<g>
					<g>
						<path style="fill:#263238;" d="M318.571,423.772c-0.053,0.076-1.263-0.763-3.38-1.82c-2.109-1.075-5.154-2.278-8.595-3.402
							c-3.442-1.124-6.59-2.076-8.834-2.877c-1.122-0.398-2.025-0.738-2.637-1.003c-0.614-0.261-0.946-0.42-0.933-0.454
							c0.029-0.074,1.417,0.408,3.685,1.108c2.266,0.709,5.424,1.603,8.882,2.732c3.455,1.128,6.515,2.4,8.603,3.57
							c0.53,0.277,0.989,0.563,1.391,0.816c0.406,0.245,0.746,0.472,1.012,0.676C318.304,423.512,318.591,423.743,318.571,423.772z"
							/>
					</g>
				</g>
				<g>
					<g>
						<path style="fill:#263238;" d="M389.518,391.562c0.029,0.021-0.298,0.52-0.915,1.406c-0.606,0.894-1.554,2.137-2.766,3.641
							c-2.428,3.005-6.1,6.9-10.461,10.858c-4.363,3.958-8.433,7.39-11.311,9.95c-1.387,1.237-2.534,2.26-3.404,3.037
							c-0.802,0.72-1.258,1.105-1.283,1.08c-0.025-0.026,0.383-0.461,1.143-1.227c0.756-0.77,1.885-1.848,3.297-3.163
							c2.819-2.634,6.856-6.113,11.207-10.061c4.349-3.948,8.039-7.778,10.53-10.71c1.243-1.467,2.232-2.671,2.886-3.526
							C389.106,392,389.489,391.541,389.518,391.562z"/>
					</g>
				</g>
				<g style="opacity:0.2;">
					<g>
						<path d="M372.517,410.084c5.387,0.438,11.488-1.213,15.313-5.031c3.825-3.818,5.151-10.215,2.847-15.103
							c-3.137,4.478-6.678,9.242-10.996,12.898C376.956,405.155,375.153,407.964,372.517,410.084"/>
					</g>
				</g>
				<g style="opacity:0.5;">
					<g>
						<path d="M353.359,284.307c6.958,10.307,21.351,13.561,28.292,23.88c2.687,3.994,4.015,8.724,5.302,13.363
							c5.339,19.244,10.677,38.488,16.016,57.732c0.664-12.511-2.352-24.892-5.345-37.057c-2.956-12.013-5.913-24.026-8.869-36.039
							c-0.65-2.642-1.33-5.352-2.884-7.586c-1.577-2.268-3.926-3.861-6.22-5.401c-8.216-5.516-16.676-11.139-26.324-13.339"/>
					</g>
				</g>
			</g>
			<g style="opacity:0.3;">
				<g>
					<path style="fill:#FFFFFF;" d="M304.277,315.493c0.441,1.402-1.475,3.306-4.469,5.677c-1.508,1.177-3.272,2.526-5.211,3.978
						c-1.922,1.482-4.011,3.084-6.164,4.819c-2.138,1.755-4.131,3.474-5.974,5.055c-1.816,1.603-3.496,3.056-4.955,4.292
						c-2.931,2.449-5.185,3.936-6.468,3.219c-1.226-0.679-1.2-3.56,0.51-7.547c0.843-1.992,2.151-4.207,3.867-6.479
						c1.74-2.247,3.905-4.535,6.449-6.62c2.559-2.065,5.239-3.719,7.793-4.965c2.573-1.218,5.008-2.047,7.13-2.467
						C301.035,313.593,303.862,314.154,304.277,315.493z"/>
				</g>
			</g>
			<g>
				<g>
					<path style="fill:#FAFAFA;" d="M277.527,394.414c-0.001,0.15-1.038,0.245-2.268,0.541c-1.233,0.287-2.202,0.666-2.27,0.532
						c-0.068-0.12,0.845-0.734,2.15-1.039C276.442,394.137,277.534,394.277,277.527,394.414z"/>
				</g>
			</g>
			<g>
				<g>
					<path style="fill:#FAFAFA;" d="M262.349,388.905c-0.022,0.15-0.985,0.095-2.111,0.362c-1.13,0.252-1.971,0.723-2.056,0.598
						c-0.089-0.104,0.695-0.823,1.94-1.105C261.364,388.468,262.383,388.772,262.349,388.905z"/>
				</g>
			</g>
			<g>
				<g>
					<path style="fill:#FAFAFA;" d="M329.667,435.399c-0.133,0.073-1.464-2.173-3.314-4.797c-1.842-2.63-3.504-4.643-3.39-4.744
						c0.099-0.093,1.954,1.785,3.816,4.444C328.649,432.956,329.787,435.337,329.667,435.399z"/>
				</g>
			</g>
			<g>
				<g>
					<path style="fill:#FAFAFA;" d="M270.105,330.453c0.135,0.09-1.835,2.974-3.547,6.896c-1.736,3.913-2.532,7.313-2.689,7.274
						c-0.064-0.014,0.053-0.884,0.399-2.257c0.345-1.373,0.943-3.244,1.814-5.226c0.873-1.98,1.849-3.685,2.628-4.867
						C269.489,331.089,270.051,330.415,270.105,330.453z"/>
				</g>
			</g>
			<g>
				<g>
					<path style="fill:#FAFAFA;" d="M318.584,311.092c-0.028,0.134-2.591-0.315-5.612-1.376c-3.024-1.052-5.309-2.299-5.247-2.42
						c0.065-0.137,2.427,0.888,5.419,1.929C316.132,310.273,318.618,310.944,318.584,311.092z"/>
				</g>
			</g>
		</g>
		<g>
			<g>
				<g>
					<g>
						<g>
							<path style="fill:#EB996E;" d="M396.578,294.875c0.103,0.063-1.486,2.241-4.248,4.003c-2.749,1.784-5.389,2.328-5.404,2.208
								c-0.049-0.149,2.462-0.893,5.133-2.629C394.745,296.746,396.463,294.769,396.578,294.875z"/>
						</g>
					</g>
					<g>
						<g>
							<path style="fill:#FFBE9D;" d="M425.866,288.19c-5.373-12.398-59.12-56.418-59.12-56.418l-30.295,39.34
								c0.434-0.591,49.427,29.253,49.427,29.253l14.455,65.873l0,0l2.483,11.728c0,0-6.497,5.672-6.23,11.658
								c0.178,3.995-9.045,12.606-9.045,12.606c-2.18-1.814-3.584-2.321-4.678-2.111l-9.75,9.127l2.322,2.12
								c2.586,2.361,5.99,3.621,9.49,3.514l16.67-0.51c2.378-0.073,4.63-1.062,6.288-2.769c5.127-5.277,15.944-17.059,16.162-22.746
								c0.122-3.176,0.147-6.207,0.137-8.647C424.182,380.206,431.238,300.588,425.866,288.19z"/>
						</g>
						<g>
							<g>
								<path style="fill:#EB996E;" d="M409.909,393.541c0.016,0.027-0.3,0.261-0.924,0.594c-0.617,0.343-1.56,0.744-2.647,1.341
									c-1.104,0.576-2.192,1.561-3.271,2.818c-1.071,1.248-2.335,2.66-3.98,3.715c-3.261,2.192-6.923,2.772-9.438,2.6
									c-0.628-0.044-1.218-0.072-1.715-0.295c-0.499-0.194-0.828-0.668-0.804-1.061c-0.01-0.386,0.176-0.667,0.347-0.771
									c0.176-0.105,0.288-0.082,0.286-0.072c0.006,0.022-0.097,0.039-0.225,0.152c-0.124,0.11-0.249,0.356-0.214,0.679
									c0.013,0.327,0.273,0.654,0.716,0.814c0.433,0.171,1.001,0.18,1.622,0.199c2.461,0.078,5.99-0.541,9.146-2.663
									c1.596-1.025,2.809-2.359,3.914-3.606c1.098-1.247,2.289-2.273,3.447-2.822c1.137-0.572,2.092-0.917,2.73-1.204
									C409.543,393.683,409.89,393.509,409.909,393.541z"/>
							</g>
						</g>
						<g>
							<g>
								<path style="fill:#EB996E;" d="M402.288,402.221c0.069,0.13-1.306,0.939-2.789,2.201c-1.492,1.252-2.519,2.473-2.636,2.383
									c-0.108-0.072,0.769-1.469,2.312-2.766C400.71,402.734,402.235,402.102,402.288,402.221z"/>
							</g>
						</g>
						<g>
							<g>
								<path style="fill:#EB996E;" d="M409.029,374.931c0.009,0.151-1.473,0.243-3.079,1.014c-1.617,0.748-2.632,1.831-2.742,1.729
									c-0.109-0.065,0.798-1.376,2.529-2.182C407.46,374.67,409.049,374.805,409.029,374.931z"/>
							</g>
						</g>
					</g>
				</g>
			</g>
			<g>
				<g>
					<path style="fill:#EB996E;" d="M398.6,407.362c-0.038,0.083-1.075-0.431-2.866-0.857c-1.779-0.431-4.352-0.691-7.098-0.141
						c-0.681,0.148-1.344,0.309-1.964,0.528c-0.31,0.092-0.618,0.235-0.98,0.295c-0.352,0.079-0.801-0.023-1.071-0.228
						c-0.962-0.7-1.851-1.347-2.649-1.928c-1.493-1.107-2.395-1.82-2.353-1.879c0.042-0.058,1.02,0.549,2.568,1.58
						c0.811,0.549,1.715,1.161,2.694,1.823c0.43,0.332,0.97,0.086,1.625-0.146c0.639-0.234,1.323-0.404,2.028-0.557
						c2.84-0.568,5.498-0.237,7.293,0.296c0.907,0.253,1.602,0.569,2.076,0.788C398.369,407.18,398.616,407.331,398.6,407.362z"/>
				</g>
			</g>
		</g>
		<g>
			<g>
				<path style="fill:#FFBE9D;" d="M285.53,254.563c-6.41-1.831-9.253-2.628-9.253-2.628l0.018-2.908c0,0,0,0,2.551-0.029
					c2.551-0.029,6.239-3.183,6.239-3.183l5.465-8.378l0.704-5.365c-0.586-6.626-8.566-4.034-8.566-4.034
					c-0.375-2.311-10.594-4.632-18.272-6.057c-5.213-0.968-10.584,0.438-14.636,3.857l-7.371,6.221L220.318,251.4l-57.006,48.151
					l-37.468-11.064c0,0-11.914,36.457-13.861,49.55c-3.733,25.092,30.753,41.812,45.955,28.9
					c11.819-10.039,80.761-84.275,92.18-96.589c0.03-0.003,0.065,0,0.095-0.003c7.03-0.897,18.876-7.993,18.876-7.993l6.091,0.718
					c0,0,16.184,3.091,18.098-0.084C294.779,260.495,291.939,256.394,285.53,254.563z"/>
			</g>
			<g>
				<g>
					<g>
						<g>
							<g>
								<g>
									<path style="fill:#EB996E;" d="M252.338,247.277c0.033-0.013,0.159,0.237,0.357,0.704c0.208,0.463,0.438,1.164,0.656,2.046
										c0.443,1.761,0.693,4.313,0.26,7.072c-0.444,2.758-1.474,5.107-2.441,6.643c-0.481,0.771-0.917,1.366-1.258,1.742
										c-0.334,0.382-0.53,0.581-0.558,0.558c-0.073-0.059,0.634-0.925,1.498-2.485c0.868-1.554,1.812-3.856,2.245-6.54
										c0.421-2.685,0.237-5.166-0.106-6.912C252.654,248.354,252.249,247.311,252.338,247.277z"/>
								</g>
							</g>
							<g>
								<g>
									<path style="fill:#EB996E;" d="M256.466,226.864c-0.002-0.018,0.214-0.058,0.626-0.118c0.413-0.057,1.022-0.137,1.811-0.21
										c1.572-0.132,3.883-0.33,6.713,0.079c1.407,0.216,2.943,0.61,4.47,1.333c1.519,0.72,3.05,1.768,4.258,3.26
										c1.198,1.476,2.077,3.425,2.047,5.549c-0.007,1.054-0.286,2.13-0.788,3.091c-0.5,0.965-1.191,1.825-1.96,2.604
										c-1.53,1.513-3.206,2.755-4.896,3.851c-0.857,0.524-1.673,1.081-2.625,1.436c-0.471,0.169-0.974,0.291-1.498,0.252
										c-0.523-0.022-1.054-0.283-1.383-0.698c-0.336-0.422-0.441-0.954-0.434-1.43c0.006-0.484,0.109-0.941,0.254-1.371
										c0.296-0.847,0.695-1.623,1.173-2.313c0.949-1.386,2.18-2.416,3.439-3.089l0.056,0.348
										c-2.832-0.539-5.146-0.979-6.821-1.298c-0.759-0.156-1.372-0.281-1.85-0.379c-0.422-0.092-0.642-0.15-0.639-0.168
										c0.003-0.018,0.229,0.004,0.657,0.063c0.482,0.073,1.101,0.166,1.867,0.281c1.683,0.278,4.007,0.663,6.851,1.133
										l0.526,0.087l-0.47,0.261c-1.197,0.665-2.364,1.669-3.257,3.005c-0.449,0.663-0.824,1.411-1.096,2.214
										c-0.253,0.772-0.374,1.726,0.119,2.355c0.502,0.65,1.494,0.606,2.335,0.278c0.855-0.32,1.68-0.878,2.52-1.398
										c1.656-1.08,3.32-2.321,4.801-3.787c1.497-1.48,2.613-3.352,2.608-5.337c0.035-1.975-0.778-3.825-1.911-5.239
										c-1.14-1.43-2.605-2.457-4.071-3.172c-1.474-0.718-2.962-1.123-4.341-1.358c-2.77-0.448-5.07-0.311-6.64-0.24
										c-0.744,0.046-1.345,0.083-1.815,0.112C256.688,226.876,256.468,226.882,256.466,226.864z"/>
								</g>
							</g>
							<g>
								<g>
									<path style="fill:#EB996E;" d="M282.757,228.379c0.033-0.003,0.107,0.379,0.177,1.078c0.07,0.698,0.138,1.715,0.118,2.975
										c-0.052,2.488-0.473,6.1-2.491,9.462c-1.991,3.346-5.134,5.508-7.719,5.844c-1.318,0.158-2.362-0.422-2.82-0.971
										c-0.241-0.274-0.365-0.534-0.424-0.713c-0.06-0.18-0.062-0.281-0.048-0.285c0.048-0.021,0.13,0.385,0.618,0.857
										c0.474,0.466,1.426,0.934,2.63,0.746c2.385-0.397,5.405-2.518,7.316-5.746c1.949-3.242,2.425-6.752,2.57-9.208
										C282.806,229.933,282.667,228.385,282.757,228.379z"/>
								</g>
							</g>
							<g>
								<g>
									<path style="fill:#EB996E;" d="M268.607,256.936c-0.056-0.064,0.464-0.518,1.079-1.412
										c0.615-0.883,1.286-2.262,1.445-3.895c0.158-1.633-0.235-3.116-0.669-4.1c-0.431-0.995-0.855-1.541-0.787-1.593
										c0.042-0.04,0.578,0.431,1.119,1.433c0.541,0.987,1.025,2.558,0.856,4.311c-0.171,1.752-0.948,3.2-1.669,4.065
										C269.257,256.624,268.641,256.983,268.607,256.936z"/>
								</g>
							</g>
							<g>
								<g>
									<path style="fill:#EB996E;" d="M258.889,237.982c0.058-0.037,0.458,0.792,0.321,2.188
										c-0.065,0.684-0.241,1.525-0.698,2.335c-0.422,0.802-0.976,1.651-1.703,2.422c-1.459,1.57-3.259,2.35-4.492,2.874
										c-1.26,0.507-2.059,0.756-2.086,0.693c-0.03-0.069,0.724-0.441,1.934-1.029c1.19-0.607,2.893-1.415,4.264-2.896
										c0.688-0.731,1.229-1.532,1.661-2.296c0.447-0.739,0.644-1.501,0.753-2.15
										C259.067,238.814,258.815,238.002,258.889,237.982z"/>
								</g>
							</g>
						</g>
					</g>
					<g>
						<g>
							<path style="fill:#455A64;" d="M301.409,240.939l-28.126,15.335c0,0,15.048,3.759,28.667,18.175
								c12.351,13.074,17.122,27.232,17.122,27.232l28.026-18.646C347.098,283.035,332.049,248.899,301.409,240.939z"/>
						</g>
						<g>
							<g>
								<path style="fill:#FFFFFF;" d="M278.24,255.698c1.239-0.708,8.913-5.093,22.715-12.981l0.065-0.037l0.074,0.019
									c3.695,0.968,7.593,2.544,11.49,4.735c3.882,2.214,7.762,5.036,11.46,8.418c3.712,3.367,7.261,7.27,10.58,11.585
									c3.31,4.324,6.446,9.021,9.127,14.156l0.105,0.202l-0.194,0.13c-0.465,0.311-0.969,0.648-1.473,0.986
									c-7.584,5.068-14.895,9.954-21.622,14.449l-0.253,0.169l-0.115-0.281c-3.35-8.185-7.731-15.255-12.463-20.893
									c-4.735-5.649-9.756-9.879-14.204-12.929c-4.457-3.056-8.336-4.961-11.041-6.12c-1.357-0.575-2.422-0.97-3.146-1.226
									c-0.348-0.118-0.621-0.211-0.828-0.281C278.317,255.73,278.234,255.698,278.24,255.698c0.079,0.016,0.162,0.033,0.293,0.06
									c0.209,0.06,0.486,0.139,0.838,0.24c0.734,0.23,1.812,0.601,3.183,1.154c2.734,1.115,6.65,2.983,11.152,6.017
									c4.493,3.028,9.567,7.252,14.354,12.913c4.784,5.651,9.213,12.752,12.598,20.978l-0.368-0.112
									c6.723-4.501,14.029-9.394,21.609-14.469c0.505-0.338,1.008-0.674,1.473-0.986l-0.089,0.332
									c-2.651-5.08-5.779-9.776-9.064-14.077c-3.297-4.298-6.819-8.186-10.499-11.541c-3.666-3.37-7.509-6.183-11.351-8.396
									c-3.857-2.189-7.713-3.77-11.371-4.752l0.138-0.018C287.223,250.732,279.488,255.008,278.24,255.698z"/>
							</g>
						</g>
						<g>
							<path style="fill:#FAFAFA;" d="M324.287,264.937c-0.733,4.329-6.218,6.95-12.251,5.853
								c-6.033-1.097-10.331-5.496-9.598-9.826c0.733-4.33,6.218-6.95,12.251-5.853C320.723,256.208,325.02,260.607,324.287,264.937
								z"/>
						</g>
						<g>
							<path style="fill:#455A64;" d="M311.184,266.333l-0.973,1.075l-1.121-1.09l0.938-1.036c-0.873-0.977-1.507-2.12-1.698-3.035
								l1.888-0.822c0.22,0.96,0.796,2.03,1.554,2.766c0.766,0.745,1.266,0.814,1.564,0.484c0.973-1.075-3.456-3.906-1.177-6.424
								c0.964-1.065,2.517-1.249,4.206,0.029l0.964-1.065l1.121,1.09l-0.946,1.046c0.639,0.73,1.146,1.587,1.379,2.415l-1.857,0.869
								c-0.311-0.957-0.769-1.73-1.339-2.284c-0.775-0.754-1.301-0.755-1.608-0.416c-0.938,1.036,3.473,3.867,1.212,6.365
								C314.36,267.328,312.843,267.528,311.184,266.333z"/>
						</g>
						<g>
							<path style="fill:#FAFAFA;" d="M284.66,252.09c0,0,4.768,2.42,0.187,5.957l-7.007-2.718L284.66,252.09z"/>
						</g>
						<g>
							<path style="fill:#FAFAFA;" d="M297.474,244.887c0,0,4.599,4.858,8.992-0.196l-5.42-1.811L297.474,244.887z"/>
						</g>
						<g>
							<path style="fill:#FAFAFA;" d="M317.536,290.774c0,0,6.191-5.025,9.808,1.754l-6.916,4.626L317.536,290.774z"/>
						</g>
						<g>
							<path style="fill:#FAFAFA;" d="M340.378,276.205c0,0-4.467,2.795-1.438,8.566l4.576-3.061L340.378,276.205z"/>
						</g>
						<g>
							<path style="fill:#455A64;" d="M323.807,292.424c-0.001,1.072-0.839,1.94-1.873,1.939c-1.034-0.001-1.872-0.87-1.871-1.942
								c0.001-1.072,0.84-1.94,1.874-1.939C322.97,290.483,323.807,291.353,323.807,292.424z"/>
						</g>
						<g>
							<path style="fill:#455A64;" d="M342.575,280.49c-0.001,1.072-0.84,1.94-1.874,1.939c-1.034-0.001-1.872-0.87-1.871-1.942
								c0.001-1.072,0.84-1.94,1.874-1.939C341.738,278.548,342.576,279.418,342.575,280.49z"/>
						</g>
						<g>
							<path style="fill:#455A64;" d="M303.927,244.7c0,0.69-0.96,1.249-2.143,1.248s-2.142-0.561-2.141-1.252
								c0-0.69,0.96-1.249,2.143-1.249C302.969,243.449,303.927,244.009,303.927,244.7z"/>
						</g>
						<g>
							<path style="fill:#455A64;" d="M285.646,255.07c-0.001,0.918-0.932,1.662-2.079,1.661c-1.148-0.001-2.078-0.746-2.077-1.664
								c0.001-0.918,0.932-1.662,2.079-1.661C284.717,253.406,285.646,254.151,285.646,255.07z"/>
						</g>
						<g>
							<path style="fill:#FAFAFA;" d="M302.893,254.027c-0.001,1.063-1.323,1.923-2.953,1.922c-1.63-0.001-2.951-0.864-2.951-1.927
								c0.001-1.063,1.323-1.924,2.953-1.922C301.572,252.102,302.893,252.965,302.893,254.027z"/>
						</g>
						<g>
							<path style="fill:#FAFAFA;" d="M326.583,279.723c-1.33,0.605-2.972-0.236-3.667-1.878c-0.695-1.642-0.18-3.463,1.151-4.068
								c1.33-0.605,2.972,0.236,3.667,1.878C328.429,277.297,327.913,279.118,326.583,279.723z"/>
						</g>
					</g>
					<g>
						<g>
							<path style="fill:#FFBE9D;" d="M285.083,245.815l11.544,12.15c0,0,4.618,5.284,7.731,2.787
								c3.113-2.497-1.258-7.167-2.182-8.524c-0.924-1.358-12.235-15.092-12.235-15.092L285.083,245.815z"/>
						</g>
						<g>
							<g>
								<path style="fill:#EB996E;" d="M291.038,234.853c0.063,0.016-0.067,0.831-0.443,2.11c-0.378,1.276-1.024,3.017-2.049,4.79
									c-1.026,1.773-2.263,3.187-3.282,4.058c-1.016,0.878-1.756,1.264-1.787,1.216c-0.05-0.071,0.609-0.561,1.535-1.485
									c0.931-0.919,2.082-2.322,3.083-4.051C290.089,238.018,290.861,234.795,291.038,234.853z"/>
							</g>
						</g>
					</g>
				</g>
				<g>
					<g>
						<path style="fill:#EB996E;" d="M183.584,282.429c0.012,0.014-0.174,0.196-0.539,0.53c-0.406,0.363-0.943,0.841-1.614,1.44
							c-1.462,1.268-3.503,3.039-6.007,5.211c-5.094,4.375-12.162,10.382-20.039,16.935c-7.88,6.553-15.082,12.404-20.374,16.541
							c-2.639,2.077-4.812,3.71-6.327,4.821c-0.732,0.522-1.317,0.94-1.761,1.257c-0.406,0.283-0.624,0.424-0.634,0.409
							s0.187-0.184,0.572-0.494c0.428-0.336,0.994-0.779,1.701-1.334c1.476-1.159,3.612-2.835,6.22-4.948
							c5.229-4.208,12.391-10.101,20.27-16.653c7.843-6.55,14.943-12.48,20.134-16.815c2.549-2.12,4.627-3.847,6.114-5.084
							c0.697-0.568,1.255-1.021,1.677-1.365C183.363,282.57,183.572,282.415,183.584,282.429z"/>
					</g>
				</g>
			</g>
		</g>
	</g>
</g>
</svg>
